<?xml version="1.0" standalone="no"?>
<!DOCTYPE svg PUBLIC "-//W3C//DTD SVG 1.1//EN" "http://www.w3.org/Graphics/SVG/1.1/DTD/svg11.dtd" >
<svg xmlns="http://www.w3.org/2000/svg">
<metadata></metadata>
<defs>
<font id="adelle_rgbold" horiz-adv-x="1024" >
<font-face units-per-em="2048" ascent="1546" descent="-502" />
<missing-glyph horiz-adv-x="413" />
<glyph horiz-adv-x="2048" />
<glyph horiz-adv-x="2048" />
<glyph unicode="&#xd;" horiz-adv-x="2048" />
<glyph unicode=" "  horiz-adv-x="413" />
<glyph unicode="&#x09;" horiz-adv-x="413" />
<glyph unicode="&#xa0;" horiz-adv-x="413" />
<glyph unicode="!" horiz-adv-x="569" d="M109 135q0 160 176 160t176 -160t-176 -160t-176 160zM119 1120v363h330v-363l-35 -719h-258z" />
<glyph unicode="&#x22;" horiz-adv-x="825" d="M82 915v531h276v-531h-276zM467 915v531h276v-531h-276z" />
<glyph unicode="#" horiz-adv-x="1243" d="M61 248l45 207h193l35 231h-205l43 209h193l32 217h213l-32 -217h176l32 217h213l-32 -217h207l-41 -209h-197l-35 -231h207l-41 -207h-199l-37 -248h-210l34 248h-176l-37 -248h-213l37 248h-205zM510 455h178l35 231h-176z" />
<glyph unicode="$" horiz-adv-x="1083" d="M70 76v327h223l26 -143q5 -22 12 -30.5t27 -14.5q52 -18 152 -18q207 0 207 145q0 42 -21.5 73.5t-58.5 51t-84.5 35t-100.5 30.5t-105.5 33t-100 46t-84.5 65t-58.5 95t-21.5 132q0 159 93 256t251 129v160h256v-150q154 -11 293 -59v-350l-225 22l-25 136q-4 23 -12 31 t-29 14q-41 10 -117 10q-94 0 -148 -34t-54 -103q0 -50 35 -85t91 -56.5t123.5 -40.5t135 -47t123.5 -66.5t91 -107.5t35 -163q0 -159 -85 -255t-234 -128v-180h-254v166q-226 11 -356 74z" />
<glyph unicode="%" horiz-adv-x="1818" d="M66 887q0 180 90 281.5t270 101.5q342 0 342 -357q0 -180 -91 -283.5t-267 -103.5q-75 0 -134.5 19t-98.5 51.5t-64 78.5t-36 98.5t-11 113.5zM301 901q0 -105 28 -156t91 -51q62 0 89.5 51t27.5 160q0 99 -26.5 147t-88.5 48q-121 0 -121 -199zM377 -35l772 1307h283 l-770 -1307h-285zM1051 336q0 180 90 281.5t270 101.5q342 0 342 -357q0 -180 -91 -283.5t-267 -103.5q-94 0 -162.5 28t-107.5 79t-56.5 114t-17.5 140zM1286 350q0 -106 27 -156.5t90 -50.5t90 50.5t27 160.5q0 100 -26 147.5t-89 47.5q-119 0 -119 -199z" />
<glyph unicode="&#x26;" horiz-adv-x="1470" d="M72 397q0 144 74.5 250.5t220.5 167.5q-76 119 -76 238q0 156 110 247t285 91q103 0 206 -27.5t159 -63.5v-321l-220 8l-24 137q-5 25 -29 33q-27 8 -73 8q-60 0 -90.5 -30.5t-30.5 -81.5t25.5 -99t86.5 -118l230 -271q28 86 47 228h352v-158l-94 -19q-20 -3 -26 -8.5 t-9 -25.5q-27 -131 -76 -232l129 -147q19 -23 39 -25l121 -18v-160h-346l-113 131q-167 -156 -413 -156q-210 0 -337.5 111.5t-127.5 310.5zM369 412q0 -82 47 -136.5t145 -54.5q137 0 223 96l-270 308q-145 -61 -145 -213z" />
<glyph unicode="'" horiz-adv-x="442" d="M82 915v531h276v-531h-276z" />
<glyph unicode="(" horiz-adv-x="729" d="M86 573q0 488 352 951l232 -138q-131 -195 -192.5 -388.5t-61.5 -424.5q0 -164 32.5 -308.5t79.5 -247.5t127 -238l-235 -133q-146 190 -240 429.5t-94 497.5z" />
<glyph unicode=")" horiz-adv-x="729" d="M66 -219q125 190 187 381t62 428q0 232 -59.5 414t-185.5 385l233 135q147 -187 243.5 -432t96.5 -502q0 -481 -346 -944z" />
<glyph unicode="*" horiz-adv-x="976" d="M84 1178l70 204l137 -45l162 -133l-74 199v143h215v-143l-72 -199h-69l-19 -63l53 -41l-59 -201l-86 -117l-174 129l88 115l178 115l-213 -8zM487 1100l56 41l-21 63l164 133l137 45l68 -204l-137 -45l-211 8l178 -115l88 -115l-174 -129l-86 117z" />
<glyph unicode="+" horiz-adv-x="1167" d="M186 543v237h273v287h246v-287h274v-237h-274v-295h-246v295h-273z" />
<glyph unicode="," horiz-adv-x="516" d="M102 70l45 221q54 -1 91.5 -4t77 -12.5t63.5 -26.5t39.5 -46.5t15.5 -70.5q0 -53 -43 -141l-110 -234l-140 41l56 219q6 19 -11 25z" />
<glyph unicode="-" horiz-adv-x="636" d="M41 465v260h555v-260h-555z" />
<glyph unicode="." horiz-adv-x="555" d="M102 135q0 160 177 160q86 0 130 -41t44 -119q0 -160 -174 -160q-177 0 -177 160z" />
<glyph unicode="/" horiz-adv-x="929" d="M23 -188l575 1734h291l-574 -1734h-292z" />
<glyph unicode="0" horiz-adv-x="1232" d="M78 594q0 616 553 616q119 0 210 -28.5t150 -79.5t96 -127.5t52.5 -165t15.5 -199.5q0 -149 -28.5 -262t-91.5 -198.5t-171 -130t-258 -44.5q-121 0 -212.5 29.5t-151 81.5t-96.5 131t-52.5 170.5t-15.5 206.5zM408 590q0 -212 46.5 -303.5t163.5 -91.5q113 0 161 93.5 t48 309.5q0 213 -44.5 301t-157.5 88q-116 0 -166.5 -91.5t-50.5 -305.5z" />
<glyph unicode="1" horiz-adv-x="831" d="M72 0v162l176 14q21 1 27 9t6 32v715q0 35 -27 43l-178 37l22 168h492v-963q0 -26 5 -33t28 -8l168 -14v-162h-719z" />
<glyph unicode="2" horiz-adv-x="1073" d="M51 831q1 94 29.5 164t72.5 110.5t108 64.5t123.5 32t131.5 8q430 0 430 -327q0 -56 -16.5 -110t-38 -94t-65 -91.5t-74 -81.5t-88.5 -86l-232 -221h301q16 0 23 5t10 19l29 162h217v-385h-946v190l274 269q168 164 212 215q77 91 82 168q1 8 1 16q0 131 -146 131 q-88 0 -123.5 -38t-35.5 -144z" />
<glyph unicode="3" horiz-adv-x="1062" d="M2 18l164 181q67 -66 137.5 -101t169.5 -35q213 0 213 185q0 176 -205 176q-66 0 -151 -14v204l100 13q227 28 227 221q0 141 -149 141q-87 0 -125.5 -38.5t-38.5 -143.5l-281 24q0 94 28 163.5t71 110t106.5 65t122.5 32.5t131 8q230 0 333 -85.5t103 -254.5 q0 -123 -66 -205.5t-169 -113.5v-8q132 -20 201 -99.5t69 -216.5q0 -196 -133.5 -296.5t-361.5 -100.5q-154 0 -285.5 50.5t-210.5 137.5z" />
<glyph unicode="4" horiz-adv-x="1140" d="M53 127v211l420 879l268 -123l-387 -727h297v329l283 43v-372h170v-240h-170v-264h-283v264h-598z" />
<glyph unicode="5" horiz-adv-x="1110" d="M6 18l164 187q139 -139 326 -139q97 0 159 56t62 161q0 60 -18 101.5t-49 61t-60.5 27.5t-63.5 8q-111 0 -196 -88l-203 84l45 703h535q9 0 14 3.5t7.5 8t4.5 12.5l27 113l182 12v-407h-543l-28 -281q106 70 260 70q184 0 289.5 -106.5t105.5 -311.5q0 -95 -33 -178.5 t-95 -147.5t-159 -100.5t-217 -36.5q-166 0 -299.5 49.5t-216.5 138.5z" />
<glyph unicode="6" horiz-adv-x="1157" d="M88 649q0 66 7 130t25 134t45.5 131t71.5 116.5t99.5 94.5t133 62.5t169.5 23.5q428 0 428 -337l-289 -35q0 92 -32 126.5t-113 34.5q-64 0 -109 -30t-70 -85t-37 -119.5t-14 -147.5q135 79 287 79q184 0 292 -100.5t108 -294.5q0 -229 -134 -343t-358 -114 q-116 0 -205 34t-146 93t-93.5 146t-51 184t-14.5 217zM403 543q2 -57 6.5 -100t18 -91t34 -79t57 -51.5t85.5 -20.5q90 0 131 60t41 157q0 104 -37 147t-129 43q-103 0 -207 -65z" />
<glyph unicode="7" horiz-adv-x="1089" d="M80 707v473h989v-232q-187 -198 -311 -490.5t-133 -594.5h-326q13 159 52 309.5t85 260t107 211.5t107 162.5t95 115.5h-391q-14 0 -18.5 -5.5t-7.5 -21.5l-33 -172z" />
<glyph unicode="8" horiz-adv-x="1105" d="M68 330q0 110 51 192t143 158q-68 46 -109.5 117t-41.5 164q0 182 124.5 281t323.5 99q201 0 313.5 -86.5t112.5 -240.5q0 -91 -46 -173.5t-116 -144.5q102 -58 158.5 -135t56.5 -190q0 -129 -67 -220t-179.5 -133.5t-259.5 -42.5q-223 0 -343.5 90t-120.5 265zM324 346 q0 -79 54.5 -122.5t158.5 -43.5q94 0 142 43t48 113q0 23 -7 44t-16 37t-28.5 33.5t-33 28t-42.5 26.5t-43.5 23.5t-49.5 24t-48 22.5q-69 -65 -102 -119t-33 -110zM406 1006q0 -38 15 -68t48 -56t64 -43.5t85 -43.5q107 112 107 204q0 69 -43.5 104.5t-120.5 35.5 q-75 0 -115 -36.5t-40 -96.5z" />
<glyph unicode="9" horiz-adv-x="1167" d="M82 754q0 219 129 337.5t356 118.5q117 0 207.5 -33.5t148.5 -91t95 -142.5t52 -180.5t15 -211.5q0 -719 -546 -719q-122 0 -240.5 40.5t-189.5 109.5l131 188q60 -50 134.5 -80.5t149.5 -30.5q57 0 99.5 18t69 47.5t43 75t23.5 93t9 108.5q-118 -77 -287 -77 q-175 0 -287 113.5t-112 316.5zM395 770q0 -113 37.5 -167t126.5 -54q105 0 209 74q-3 61 -8 107t-18.5 97t-34.5 84t-57 54.5t-85 21.5q-91 0 -130.5 -60.5t-39.5 -156.5z" />
<glyph unicode=":" horiz-adv-x="555" d="M102 135q0 160 177 160q86 0 130 -41t44 -119q0 -160 -174 -160q-177 0 -177 160zM102 913q0 160 177 160q86 0 130 -41t44 -119q0 -159 -174 -159q-177 0 -177 159z" />
<glyph unicode=";" horiz-adv-x="522" d="M102 70l45 221q54 -1 91.5 -4t77 -12.5t63.5 -26.5t39.5 -46.5t15.5 -70.5q0 -53 -43 -141l-110 -234l-140 41l56 219q6 19 -11 25zM111 913q0 160 176 160q86 0 130 -41t44 -119q0 -159 -174 -159q-176 0 -176 159z" />
<glyph unicode="&#x3c;" horiz-adv-x="1167" d="M141 453v286l795 291l70 -231l-598 -201l602 -201l-70 -225z" />
<glyph unicode="=" horiz-adv-x="1167" d="M188 266v240h791v-240h-791zM188 647v240h791v-240h-791z" />
<glyph unicode="&#x3e;" horiz-adv-x="1167" d="M141 397l602 201l-596 201l68 231l795 -291v-286l-799 -281z" />
<glyph unicode="?" horiz-adv-x="1081" d="M102 1016v377q236 90 447 90q495 0 495 -422q0 -198 -113 -321.5t-331 -149.5v-189h-309v373q37 3 61.5 5.5t61.5 8t62.5 12t58 17.5t54 25t44.5 34.5t36.5 45t22 57.5t8.5 72q0 87 -43 133.5t-122 46.5q-75 0 -138 -25q-15 -6 -19 -12.5t-7 -28.5l-19 -131zM270 135 q0 160 176 160q86 0 130.5 -41t44.5 -119q0 -160 -175 -160q-176 0 -176 160z" />
<glyph unicode="@" horiz-adv-x="1722" d="M117 344q0 183 58 336t162 259t251.5 165t322.5 59q210 0 369 -74t249.5 -222.5t90.5 -354.5q0 -272 -108.5 -404.5t-294.5 -132.5q-185 0 -236 142q-71 -69 -128.5 -105.5t-121.5 -36.5q-108 0 -170.5 74.5t-62.5 214.5q0 110 30.5 209.5t87 175t142.5 120t190 44.5 q148 0 285 -65l-47 -302q-27 -153 -27 -217q0 -79 76 -79q52 0 89.5 36t56 93.5t26.5 111t8 105.5q0 230 -125.5 356.5t-384.5 126.5q-116 0 -213 -34.5t-164 -94.5t-114 -141t-68.5 -173t-21.5 -192q0 -268 145 -409.5t408 -141.5q168 0 342 64l49 -168q-165 -72 -416 -72 q-224 0 -388 81t-255.5 246t-91.5 400zM705 297q0 -143 81 -143q40 0 87 29.5t90 78.5l59 377q-36 25 -90 25q-91 0 -159 -103.5t-68 -263.5z" />
<glyph unicode="A" horiz-adv-x="1554" d="M6 0v160l90 22q42 10 51 39l449 1262h362l447 -1266q5 -17 15.5 -23.5t33.5 -11.5l94 -22v-160h-647v160l168 18l-74 213h-508l-71 -213l162 -18v-160h-572zM551 612h383l-182 557h-13z" />
<glyph unicode="B" horiz-adv-x="1376" d="M78 0v160l129 14q22 3 27.5 10.5t5.5 30.5v1049q0 24 -6 32t-27 9l-129 14v164h690q127 0 217 -27.5t139.5 -78.5t71 -113.5t21.5 -143.5q0 -136 -72 -222.5t-178 -121.5v-6q172 -20 257 -112.5t85 -249.5q0 -89 -27.5 -158.5t-76 -116t-119.5 -77t-153.5 -43.5 t-182.5 -13h-672zM555 221h141q142 0 213.5 47t71.5 172q0 215 -254 215h-172v-434zM555 860h82q48 0 86 5t75 18.5t62 36.5t40 60.5t15 88.5q0 49 -12.5 84t-33 55.5t-54 32.5t-67 15.5t-80.5 3.5h-113v-400z" />
<glyph unicode="C" horiz-adv-x="1386" d="M63 748q0 165 48 303t141 240.5t239.5 160t333.5 57.5q130 0 256 -30.5t209 -85.5v-402l-225 19l-33 200q-6 29 -33 37q-80 25 -182 25q-199 0 -312.5 -134t-113.5 -390q0 -266 108.5 -402.5t303.5 -136.5q116 0 205 27q19 4 25 12t11 31l31 190h219v-381 q-88 -54 -227.5 -83.5t-284.5 -29.5q-188 0 -327 53.5t-224.5 155.5t-126.5 242t-41 322z" />
<glyph unicode="D" horiz-adv-x="1540" d="M78 0v164l129 14q21 1 27 9t6 32v1047q0 23 -5.5 30.5t-27.5 10.5l-129 14v162h663q374 0 555 -188t181 -531q0 -173 -46.5 -311.5t-139 -240.5t-241 -157t-343.5 -55h-629zM557 221h117q132 0 226.5 37.5t149.5 108.5t80 164t25 214q0 279 -110.5 398t-358.5 119h-129 v-1041z" />
<glyph unicode="E" horiz-adv-x="1284" d="M78 0v160l129 14q22 3 27.5 10.5t5.5 30.5v1051q0 24 -6 32t-27 9l-129 14v162h1089v-414l-225 10l-29 156q-3 15 -10 21t-24 6h-322v-404h479v-227h-479v-412h367q17 0 23 4t9 19l33 180h223v-422h-1134z" />
<glyph unicode="F" horiz-adv-x="1234" d="M78 0v160l129 14q22 3 27.5 10.5t5.5 30.5v1051q0 24 -6 32t-27 9l-129 14v162h1081v-414l-225 10l-29 156q-3 15 -10.5 21t-24.5 6h-313v-402h471v-227h-471v-414q0 -25 5 -31.5t28 -9.5l301 -16v-162h-813z" />
<glyph unicode="G" horiz-adv-x="1478" d="M61 745q0 166 48 304.5t141.5 241.5t241.5 160.5t337 57.5q120 0 247.5 -30t215.5 -88v-387l-227 16l-31 184q-4 21 -11.5 29.5t-21.5 11.5q-98 27 -188 27q-197 0 -309.5 -140t-112.5 -382q0 -258 110 -398.5t326 -140.5q88 0 170 14q18 3 25.5 10.5t7.5 26.5v268h-227 l28 185h629v-164l-84 -8q-19 -2 -26 -8t-7 -21v-440q-209 -99 -530 -99q-164 0 -292.5 38t-214 105.5t-141.5 165.5t-80 211.5t-24 249.5z" />
<glyph unicode="H" horiz-adv-x="1675" d="M78 0v160l129 14q22 3 27.5 10.5t5.5 30.5v1049q0 24 -6 32t-27 9l-129 14v164h649v-164l-137 -16q-23 -3 -28 -9t-5 -30v-387h561v387q0 24 -6 32t-27 9l-129 14v164h648v-164l-138 -16q-23 -3 -27.5 -9t-4.5 -30v-1047q0 -25 4.5 -31.5t27.5 -9.5l138 -16v-160h-648 v160l129 14q22 3 27.5 10.5t5.5 30.5v432h-561v-430q0 -25 5 -31.5t28 -9.5l137 -16v-160h-649z" />
<glyph unicode="I" horiz-adv-x="827" d="M74 0v160l149 14q21 1 27 9t6 32v1049q0 24 -6 32t-27 9l-149 14v164h688v-164l-158 -16q-23 -3 -28 -9t-5 -30v-1047q0 -25 5 -31.5t28 -9.5l158 -16v-160h-688z" />
<glyph unicode="J" horiz-adv-x="1056" d="M72 55v365l229 -17l21 -147q3 -21 22 -27q36 -12 82 -12q56 0 78 27t22 92v930q0 22 -6 30t-26 9l-185 14v164h705v-164l-137 -16q-23 -3 -28 -9t-5 -28v-932q0 -183 -92.5 -271t-294.5 -88q-116 0 -227.5 25t-157.5 55z" />
<glyph unicode="K" horiz-adv-x="1540" d="M78 0v162l129 14q21 1 27 9t6 32v1049q0 23 -5.5 30.5t-27.5 10.5l-129 14v162h649v-162l-137 -16q-23 -3 -28 -9t-5 -30v-512l483 549l-127 16v164h537v-164l-86 -14q-27 -4 -38.5 -10.5t-25.5 -24.5l-376 -426l411 -629q13 -19 23.5 -24.5t36.5 -8.5l127 -20v-162h-453 l-383 592l-129 -154v-219q0 -25 5 -31.5t28 -9.5l158 -16v-162h-670z" />
<glyph unicode="L" horiz-adv-x="1277" d="M78 0v162l129 14q22 3 27.5 10.5t5.5 30.5v1049q0 24 -6 32t-27 9l-129 14v162h682v-162l-170 -16q-22 -1 -27.5 -8.5t-5.5 -30.5v-1047h365q17 0 23 4t9 19l33 204h225v-446h-1134z" />
<glyph unicode="M" horiz-adv-x="1970" d="M78 0v160l129 14q22 3 27.5 10.5t5.5 30.5v1051q0 23 -5.5 30.5t-27.5 10.5l-129 14v162h549l356 -928h8l375 928h532v-160l-137 -16q-23 -3 -27.5 -9t-4.5 -30v-1053q0 -21 6 -28.5t26 -10.5l137 -16v-160h-673v160l168 14q21 3 26.5 10.5t5.5 30.5v778h-8l-293 -698 h-333l-289 700h-10v-778q0 -25 4.5 -31.5t27.5 -9.5l176 -16v-160h-622z" />
<glyph unicode="N" horiz-adv-x="1693" d="M78 0v160l129 14q22 3 27.5 10.5t5.5 30.5v1053q0 24 -6 32t-27 9l-129 14v160h508l643 -1071v852q0 24 -6 32t-27 9l-129 14v164h569v-164l-137 -16q-23 -3 -28 -9t-5 -30v-1264h-336l-653 1069v-852q0 -25 5 -31.5t28 -9.5l137 -16v-160h-569z" />
<glyph unicode="O" horiz-adv-x="1554" d="M63 737q0 166 47 305.5t137 244t231 163.5t319 59q142 0 258 -38t196 -105.5t135 -161.5t80 -204t25 -236q0 -244 -78 -418.5t-242 -272.5t-403 -98q-146 0 -263.5 37t-199.5 103.5t-136.5 162t-80 210t-25.5 249.5zM391 743q0 -267 102 -391.5t287 -124.5q385 0 385 518 q0 258 -96.5 382t-275.5 124q-185 0 -293.5 -127t-108.5 -381z" />
<glyph unicode="P" horiz-adv-x="1323" d="M78 0v162l129 14q22 3 27.5 10.5t5.5 30.5v1047q0 24 -6 32t-27 9l-129 14v164h694q111 0 197 -23t141 -62t91 -95.5t50.5 -119t14.5 -136.5q0 -500 -561 -500h-150v-328q0 -25 5 -31.5t28 -9.5l293 -16v-162h-803zM555 766h102q46 0 82 5t76 21t66 43.5t43.5 76.5 t17.5 116q0 57 -14 99.5t-37.5 67.5t-59 40t-72 20t-83.5 5h-121v-494z" />
<glyph unicode="Q" horiz-adv-x="1552" d="M55 737q0 166 47 305.5t136.5 244t230.5 163.5t319 59q177 0 313 -58t218 -161t123 -235.5t41 -290.5q0 -326 -143 -529t-422 -245q-5 -31 -5 -70q0 -64 27.5 -95.5t93.5 -31.5q69 0 148 31l59 -180q-145 -76 -291 -76q-323 0 -323 305q0 55 6 111q-119 14 -214.5 57.5 t-163 111t-113 158t-66.5 197t-21 229.5zM383 743q0 -516 391 -516q181 0 283 124t102 394q0 258 -97.5 382t-275.5 124q-186 0 -294.5 -126.5t-108.5 -381.5z" />
<glyph unicode="R" horiz-adv-x="1406" d="M78 0v164l129 14q21 1 27 9t6 32v1047q0 23 -5.5 30.5t-27.5 10.5l-129 14v162h698q107 0 191 -22.5t137 -60t87 -91.5t48 -111.5t14 -124.5q0 -150 -70 -243t-200 -150q42 -21 67 -57.5t52 -106.5l112 -293q11 -22 23.5 -29t38.5 -10l127 -20v-164h-447l-184 514 q-19 53 -44 72.5t-77 19.5h-96v-385q0 -25 5 -31.5t28 -9.5l143 -16v-164h-653zM555 819h94q61 0 106.5 9t87 33t63.5 73t22 121q0 115 -64.5 160t-206.5 45h-102v-441z" />
<glyph unicode="S" horiz-adv-x="1214" d="M92 59v400h230l40 -195q3 -19 9 -26t26 -11q92 -22 172 -22q125 0 191.5 48.5t66.5 141.5q0 38 -14 68.5t-35 51t-57.5 38.5t-67.5 28.5t-80 24.5q-158 44 -217 71q-165 75 -213 220q-22 67 -22 152q0 115 41.5 204t116.5 144.5t173.5 83.5t217.5 28q227 0 420 -82v-399 l-232 21l-24 165q-5 30 -25 39q-76 23 -150 23q-112 0 -170.5 -47t-58.5 -127q0 -38 17 -69t36 -49.5t66 -39t71.5 -29t88.5 -27.5q5 -2 8.5 -3t7.5 -2q52 -16 85 -27t81 -32t79 -42.5t65.5 -55.5t54.5 -73t33.5 -93t13.5 -118q0 -122 -45.5 -214t-126 -146t-182 -80.5 t-222.5 -26.5q-129 0 -266.5 26.5t-202.5 57.5z" />
<glyph unicode="T" horiz-adv-x="1421" d="M51 1059v424h1319v-424h-223l-33 178q-3 15 -9 19t-24 4h-211v-1043q0 -23 5.5 -30.5t27.5 -8.5l225 -16v-162h-819v162l211 14q21 1 27 9t6 32v1043h-211q-18 0 -24 -4t-9 -19l-33 -178h-225z" />
<glyph unicode="U" horiz-adv-x="1607" d="M61 1321v162h648v-162l-138 -16q-23 -3 -27.5 -9t-4.5 -30v-670q0 -94 12 -157.5t42 -112t85 -71t137 -22.5q164 0 230.5 80.5t66.5 274.5v678q0 24 -6 32t-27 9l-129 14v162h606v-162l-137 -16q-23 -3 -28 -9t-5 -30v-736q0 -283 -152 -419t-431 -136q-304 0 -443 137 t-139 427v727q0 24 -6 32t-27 9z" />
<glyph unicode="V" horiz-adv-x="1505" d="M10 1323l21 160h620v-160l-166 -18l308 -1024h16l297 1024l-164 18l21 160h530v-160l-86 -23q-22 -5 -34.5 -13t-16.5 -25l-375 -1262h-418l-411 1266q-4 12 -12 19t-14.5 9t-23.5 6z" />
<glyph unicode="W" horiz-adv-x="2136" d="M12 1323l21 160h626v-160l-172 -20l209 -1002h17l235 907h312l233 -913h16l211 1008l-172 20l21 160h553v-160l-97 -23q-22 -3 -31.5 -10t-15.5 -26l-290 -1264h-414l-201 750h-12l-189 -750h-401l-309 1264q-4 18 -13.5 24.5t-31.5 11.5z" />
<glyph unicode="X" horiz-adv-x="1583" d="M51 1323l21 160h641v-160l-160 -18l266 -373l279 373l-158 18l21 160h540v-160l-100 -23q-29 -7 -51 -38l-383 -496l419 -545q1 -1 5.5 -6.5t6 -6.5t5.5 -5.5t6 -6l6 -4.5t7 -4t7 -3t9 -3l110 -22v-160h-671v160l161 18l-278 375l-277 -375l158 -18v-160h-586v160l119 22 q34 8 53 39l389 504l-409 541q-16 26 -49 34z" />
<glyph unicode="Y" horiz-adv-x="1384" d="M6 1323l21 160h614v-160l-160 -18l248 -484h16l248 484l-157 18l20 160h522v-160l-86 -23q-39 -10 -51 -38l-371 -705v-340q0 -23 5.5 -30.5t27.5 -8.5l217 -16v-162h-803v162l205 14q21 1 27 9t6 32v336l-408 713q-14 23 -49 34z" />
<glyph unicode="Z" horiz-adv-x="1376" d="M104 0v199l766 1063h-454q-18 0 -24 -4t-9 -19l-39 -192l-221 -7v443h1124v-207l-755 -1057h499q18 0 24 4t9 19l39 219h221v-461h-1180z" />
<glyph unicode="[" horiz-adv-x="630" d="M98 -293v1776h459v-156l-127 -22q-20 -3 -26.5 -11.5t-6.5 -29.5v-1336q0 -22 6.5 -31t26.5 -12l127 -22v-156h-459z" />
<glyph unicode="\" horiz-adv-x="921" d="M41 1546h281l575 -1734h-283z" />
<glyph unicode="]" horiz-adv-x="630" d="M68 -137l133 22q20 3 26 12t6 31v1295q0 20 -0.5 28.5t-3 23t-9.5 21.5t-19 9l-133 22v156h464v-1776h-464v156z" />
<glyph unicode="^" horiz-adv-x="1247" d="M61 612l404 748h313l408 -748h-295l-273 492l-266 -492h-291z" />
<glyph unicode="_" d="M0 -152h1024v-219h-1024v219z" />
<glyph unicode="`" d="M281 1448l168 160l313 -357l-117 -102z" />
<glyph unicode="a" horiz-adv-x="1140" d="M68 279q0 152 94 227.5t289 87.5l235 16v113q0 42 -4 67t-17 49t-41.5 35t-74.5 11q-82 0 -116 -25.5t-34 -111.5l-288 24q0 315 440 315q239 0 337.5 -79.5t98.5 -290.5v-498q0 -25 5 -31.5t28 -9.5l98 -16v-162h-377l-20 111l-10 2q-142 -138 -344 -138q-74 0 -130 20 t-87 50t-50.5 72.5t-25.5 80.5t-6 81zM383 309q0 -112 117 -112q88 0 186 73v170l-139 -10q-91 -6 -127.5 -33t-36.5 -88z" />
<glyph unicode="b" horiz-adv-x="1247" d="M18 1380l23 166h422v-567l8 -2q134 110 309 110q86 0 155.5 -29t124.5 -89.5t85.5 -163.5t30.5 -242q0 -303 -115.5 -445.5t-315.5 -142.5q-96 0 -173 35.5t-128 93.5l-10 -2l-14 -102h-293q31 204 31 299v999q0 35 -27 43zM465 295q87 -80 188 -80q99 0 149 87t50 245 q0 84 -17.5 149t-61 107.5t-109.5 42.5q-92 0 -199 -72v-479z" />
<glyph unicode="c" horiz-adv-x="1044" d="M55 518q0 278 153 423.5t408 145.5q112 0 212 -26t153 -60v-321l-219 10l-25 135q-4 26 -24 33q-44 14 -105 14q-101 0 -164 -77t-63 -246q0 -342 264 -342q123 0 256 59l80 -190q-74 -45 -177.5 -73t-211.5 -28q-136 0 -240 41t-168 114.5t-96.5 171t-32.5 216.5z" />
<glyph unicode="d" horiz-adv-x="1251" d="M72 520q0 149 35.5 261.5t97 177.5t137 96.5t164.5 31.5q155 0 289 -98v311q0 32 -27 41l-113 39l23 166h412v-1331q0 -24 4.5 -30t27.5 -9l99 -14v-162h-381l-21 115l-14 2q-70 -69 -150 -105.5t-186 -36.5q-397 0 -397 545zM395 526q0 -309 187 -309q97 0 200 88v483 q-90 62 -176 62q-108 0 -159.5 -88.5t-51.5 -235.5z" />
<glyph unicode="e" horiz-adv-x="1075" d="M55 541q0 135 39.5 241t109.5 171.5t161 99.5t198 34q213 0 332 -120t119 -375q0 -55 -4 -137h-627q8 -116 65 -179t177 -63q114 0 305 70l76 -203q-219 -105 -420 -105q-144 0 -249 43t-165.5 121.5t-88.5 178t-28 223.5zM385 649h326q-1 120 -42.5 168.5t-111.5 48.5 q-157 0 -172 -217z" />
<glyph unicode="f" horiz-adv-x="894" d="M49 862v205h154v113q0 203 110.5 297t327.5 94q62 0 111.5 -6.5t99 -26t82.5 -51.5t53.5 -85.5t20.5 -125.5l-287 -35v7q0 69 -20 95q-21 27 -74 27q-71 0 -93 -35.5t-22 -117.5v-130q0 -8 0.5 -11.5t4 -6t11.5 -2.5h324v-205h-340v-637q0 -25 7 -32t30 -9l250 -22v-162 h-744v164l115 12q21 3 27 11t6 32v623q0 11 -3 15.5t-14 4.5h-137z" />
<glyph unicode="g" horiz-adv-x="1165" d="M49 -209q0 64 26 108t87 101q-90 38 -90 135q0 63 59 125q47 49 127 123q-79 39 -127.5 118.5t-48.5 188.5q0 182 120 289.5t349 107.5q110 0 188 -20h400v-174l-189 -14q76 -97 76 -207q0 -168 -120 -264.5t-316 -96.5q-92 0 -162 19l-68 -109l201 -12q246 -16 331 -34 q149 -32 199 -120q33 -59 33 -151q0 -177 -147.5 -273t-415.5 -96q-270 0 -391 65t-121 191zM291 -164q0 -106 248 -106q56 0 95.5 3t87 14t72.5 36.5t25 64.5q0 16 -5.5 28t-19.5 20t-25.5 12.5t-37 8t-40.5 4.5t-48 3l-299 21q-53 -65 -53 -109zM373 696 q0 -79 46.5 -124.5t143.5 -45.5q87 0 140 47.5t53 126.5q0 90 -49 137.5t-138 47.5q-90 0 -143 -46.5t-53 -142.5z" />
<glyph unicode="h" horiz-adv-x="1277" d="M39 1380l22 166h422v-579l11 -2q148 122 327 122q158 0 227.5 -83t69.5 -248v-539q0 -25 5 -31.5t28 -9.5l102 -14v-162h-444v668q0 174 -109 174q-53 0 -111.5 -22.5t-101.5 -53.5v-549q0 -25 5 -31.5t28 -9.5l98 -14v-162h-565v162l92 14q22 3 27.5 10.5t5.5 30.5v1081 q0 35 -26 43z" />
<glyph unicode="i" horiz-adv-x="647" d="M41 0v162l104 14q22 3 27.5 10.5t5.5 30.5v602q0 35 -26 43l-111 39l22 166h424v-850q0 -25 5 -31.5t28 -9.5l105 -14v-162h-584zM121 1415q0 87 48 133.5t136 46.5q90 0 138.5 -46.5t48.5 -133.5q0 -88 -49 -136t-138 -48q-88 0 -136 48t-48 136z" />
<glyph unicode="j" horiz-adv-x="622" d="M-215 -352l88 170q89 -54 178 -54q66 0 94.5 38.5t28.5 140.5v876q0 35 -27 43l-116 39l24 166h428v-1176q0 -180 -90.5 -264t-265.5 -84q-112 0 -206 34.5t-136 70.5zM117 1415q0 87 49 133.5t137 46.5q90 0 138 -46.5t48 -133.5q0 -88 -48.5 -136t-137.5 -48 q-88 0 -137 48t-49 136z" />
<glyph unicode="k" horiz-adv-x="1269" d="M39 1380l22 166h426v-874l375 395h283v-162l-107 -20q-19 -3 -27.5 -8.5t-23.5 -22.5l-145 -154l262 -489q10 -21 22 -27.5t39 -9.5l90 -14v-160h-397l-260 522l-111 -121v-184q0 -25 5 -31.5t28 -9.5l123 -14v-162h-600v162l102 14q22 3 27.5 10.5t5.5 30.5v1081 q0 35 -26 43z" />
<glyph unicode="l" horiz-adv-x="647" d="M39 1380l22 166h426v-1329q0 -25 5 -31.5t28 -9.5l101 -14v-162h-578v162l102 14q22 3 27.5 10.5t5.5 30.5v1081q0 35 -26 43z" />
<glyph unicode="m" horiz-adv-x="1820" d="M41 901l22 166h361l16 -106l11 -3q156 129 327 129q178 0 250 -122q157 122 330 122q162 0 231.5 -82.5t69.5 -263.5v-524q0 -26 5 -33t28 -10l102 -12v-162h-444v662q0 28 -1.5 49.5t-8.5 46.5t-18.5 41.5t-33.5 27.5t-53 11q-81 0 -166 -56q6 -50 6 -100v-465 q0 -27 5 -33.5t28 -9.5l82 -12v-162h-424v672q0 35 -3 59t-13 51.5t-33.5 41.5t-59.5 14q-44 0 -90.5 -19t-79.5 -47v-555q0 -26 4.5 -31t28.5 -10l101 -14v-162h-568v162l92 14q22 3 27.5 10.5t5.5 30.5v602q0 35 -26 43z" />
<glyph unicode="n" horiz-adv-x="1277" d="M41 901l25 166h358l16 -106l9 -5q176 131 360 131q163 0 236 -87t73 -261v-522q0 -25 5 -31.5t28 -9.5l102 -14v-162h-444v662q0 35 -1.5 57t-7.5 48t-17.5 40.5t-32 24.5t-50.5 10q-53 0 -114.5 -24t-98.5 -52v-549q0 -25 5 -31.5t28 -9.5l98 -14v-162h-565v164l92 12 q22 3 27.5 10.5t5.5 30.5v602q0 35 -26 43z" />
<glyph unicode="o" horiz-adv-x="1189" d="M55 526q0 263 139.5 412t413.5 149q139 0 242 -39.5t164.5 -112.5t91 -169t29.5 -217q0 -269 -139 -421.5t-414 -152.5q-137 0 -240 40.5t-165 115t-92 173t-30 222.5zM379 537q0 -347 217 -347q105 0 160 82t55 267q0 176 -51.5 251.5t-155.5 75.5q-108 0 -166.5 -76.5 t-58.5 -252.5z" />
<glyph unicode="p" horiz-adv-x="1259" d="M35 901l22 166h361l18 -104l10 -5q73 60 167 94.5t182 34.5q183 0 288 -126t105 -398q0 -80 -11 -156t-40.5 -156.5t-75.5 -140t-122 -97.5t-173 -38q-164 0 -293 105v-293q0 -26 5 -33t28 -8l213 -18v-162h-668v164l82 12q22 3 29.5 11.5t7.5 31.5v1034q0 35 -27 43z M477 293q90 -78 193 -78q99 0 146.5 87.5t47.5 244.5q0 152 -46.5 224.5t-127.5 72.5q-106 0 -213 -74v-477z" />
<glyph unicode="q" horiz-adv-x="1220" d="M72 512q0 122 24.5 220.5t65.5 163.5t97.5 109t119 63t131.5 19q164 0 297 -116l31 96h268q-16 -153 -16 -332v-954q0 -24 4.5 -30t27.5 -9l97 -14v-162h-623v164l176 14q25 1 33 9t8 28v321l-10 4q-73 -62 -148 -96.5t-176 -34.5q-191 0 -299 130.5t-108 406.5zM393 526 q0 -153 46.5 -231t146.5 -78q96 0 194 84v483q-96 66 -180 66q-105 0 -156 -89t-51 -235z" />
<glyph unicode="r" horiz-adv-x="968" d="M41 901l22 166h361l25 -164h12q120 184 289 184q111 0 178 -18v-373l-246 9l-20 108q-5 23 -27 23q-65 0 -148 -72v-543q0 -26 5 -33t28 -8l203 -16v-164h-670v166l92 12q22 3 27.5 10.5t5.5 30.5v600q0 35 -26 43z" />
<glyph unicode="s" horiz-adv-x="997" d="M74 49v297l219 -16l20 -117q3 -26 25 -31q62 -20 158 -20q170 0 170 106q0 56 -47.5 82.5t-139.5 42.5q-153 28 -221 57q-175 80 -176 279q0 92 37 162.5t101.5 112t144 62.5t170.5 21q110 0 217 -19t159 -40v-297l-219 14l-20 107q-3 24 -21 29q-54 16 -131 16 q-76 0 -118 -27t-42 -77q0 -22 11.5 -40t28 -29.5t47.5 -22t55 -17t65 -15.5q7 -2 10.5 -2.5t9.5 -2t11 -2.5q59 -13 99.5 -25.5t90.5 -38.5t80.5 -59t52 -87.5t21.5 -123.5q0 -91 -35.5 -160t-99 -110.5t-146 -62t-182.5 -20.5q-127 0 -249 25.5t-156 48.5z" />
<glyph unicode="t" horiz-adv-x="892" d="M16 862v182q134 15 196 90.5t79 243.5h194v-291q0 -12 3 -16t14 -4h289v-205h-306v-489q0 -93 29.5 -130.5t110.5 -37.5q76 0 166 33l55 -181q-168 -82 -334 -82q-181 0 -258.5 77.5t-77.5 252.5v537q0 8 -0.5 11t-4 6t-11.5 3h-144z" />
<glyph unicode="u" horiz-adv-x="1275" d="M41 899l20 168h420v-678q0 -97 22.5 -134.5t86.5 -37.5q108 0 211 94v527q0 25 -5 30.5t-28 10.5l-88 20l22 168h408v-850q0 -22 5 -30t24 -9l102 -14v-164h-381l-16 111l-10 2q-40 -30 -70 -49t-77 -42.5t-101.5 -35t-116.5 -11.5q-158 0 -227.5 89t-69.5 272v500 q0 25 -5 32t-28 11z" />
<glyph unicode="v" horiz-adv-x="1275" d="M6 901l33 166h555v-166l-131 -16l209 -584h14l217 584l-133 16l27 166h473v-166l-74 -12q-23 -5 -33.5 -11.5t-17.5 -23.5l-326 -854h-358l-326 848q-7 18 -15 24t-28 11z" />
<glyph unicode="w" horiz-adv-x="1800" d="M6 901l33 166h518v-170l-115 -12l164 -576h15l182 731h309l176 -731h12l154 576l-117 12l27 170h430v-166l-74 -14q-22 -3 -32.5 -12t-16.5 -29l-252 -846h-323l-160 686h-12l-162 -686h-369l-258 848q-6 18 -14.5 24t-28.5 11z" />
<glyph unicode="x" horiz-adv-x="1234" d="M27 0v160l92 18q12 2 21.5 7t15 10.5t16.5 17.5l270 299l-278 332q-24 27 -49 35l-82 22l20 166h545v-166l-100 -16l151 -191l168 191l-112 16l20 166h453v-166l-95 -20q-11 -4 -18.5 -8.5t-17.5 -15.5t-15 -15l-250 -277l287 -350l10.5 -10.5l10 -10t8.5 -7t11.5 -6.5 t12.5 -3l92 -16v-162h-581v160l96 18l-156 205l-170 -203l115 -18v-162h-491z" />
<glyph unicode="y" horiz-adv-x="1267" d="M6 901l33 166h543v-166l-129 -16l227 -541h14l217 541l-133 16l27 166h457v-166l-66 -12q-40 -6 -51 -35l-451 -1102l213 -22v-164h-682v166l160 18q19 1 30.5 11.5t20.5 33.5l88 195l-391 856q-6 18 -14.5 24t-28.5 11z" />
<glyph unicode="z" horiz-adv-x="1058" d="M70 721v346h899v-176l-539 -701h301q19 0 23 27l24 141l223 11v-369h-929v172l549 702h-287q-19 0 -23 -26l-24 -115z" />
<glyph unicode="{" horiz-adv-x="677" d="M35 510v162q76 5 109.5 36.5t33.5 114.5q0 78 -14 202.5t-14 178.5q0 159 96.5 219.5t343.5 65.5l20 -164q-85 -20 -115 -47t-30 -100q0 -51 16.5 -170.5t16.5 -184.5q0 -98 -33 -152t-96 -81q63 -27 96 -81t33 -151q0 -65 -16.5 -182t-16.5 -170q0 -73 30 -100t115 -47 l-20 -164q-247 5 -343.5 65.5t-96.5 219.5q0 54 14 177t14 201q0 83 -34 115t-109 37z" />
<glyph unicode="|" horiz-adv-x="573" d="M145 -293v1839h281v-1839h-281z" />
<glyph unicode="}" horiz-adv-x="677" d="M68 -141q85 20 115 47t30 100q0 53 -16.5 170t-16.5 182q0 97 33 151t96 81q-63 27 -96 81t-33 152q0 65 16.5 184.5t16.5 170.5q0 73 -30 100t-115 47l20 164q247 -5 343.5 -65.5t96.5 -219.5q0 -54 -14 -178.5t-14 -202.5q0 -83 33.5 -114.5t109.5 -36.5v-162 q-75 -5 -109 -37t-34 -115q0 -78 14 -201t14 -177q0 -159 -96.5 -219.5t-343.5 -65.5z" />
<glyph unicode="~" horiz-adv-x="1073" d="M47 664q33 121 101 196.5t163 75.5q81 0 232 -47t213 -47q46 0 68.5 21t43.5 79l160 -59q-25 -149 -79.5 -219t-151.5 -70q-79 0 -237.5 47t-215.5 47q-51 0 -82 -20.5t-63 -77.5z" />
<glyph unicode="&#xa2;" horiz-adv-x="1060" d="M86 582q0 210 101.5 341t285.5 167v217h258v-209q148 -18 260 -80v-307l-211 10l-20 121q-3 16 -8.5 23.5t-18.5 11.5q-40 14 -102 14q-213 0 -213 -297q0 -165 51.5 -240t161.5 -75q70 0 106 12q11 4 14.5 9.5t6.5 21.5l24 129l211 8v-307q-114 -68 -278 -80v-209h-256 v217q-373 68 -373 502z" />
<glyph unicode="&#xa3;" horiz-adv-x="1153" d="M59 184q66 39 95.5 77.5t41 102.5t11.5 191v16h-144v226h144v84q0 75 12 138t44.5 124.5t85.5 103.5t139.5 68t201.5 26q67 0 121.5 -7t110.5 -29t94 -58t62 -98t24 -145l-281 -37q0 77 -27.5 115t-99.5 38q-180 0 -180 -205v-118h299v-226h-299q0 -128 -25.5 -215 t-95.5 -157h428q14 0 18.5 6t6.5 18l33 162h217v-385h-1004z" />
<glyph unicode="&#xa5;" horiz-adv-x="1239" d="M-10 1143l20 160h584v-160l-133 -19l196 -317h13l207 317l-140 19l21 160h491v-160l-86 -23q-32 -8 -51 -39l-272 -401h209v-240h-265v-223q0 -23 5.5 -30.5t27.5 -8.5l217 -16v-162h-803v162l205 14q16 2 23.5 11.5t8.5 20t1 32.5v200h-254v240h197l-281 405 q-10 17 -20 23.5t-29 11.5z" />
<glyph unicode="&#xa8;" d="M150 1364q0 65 40 104t105 39q66 0 105.5 -38.5t39.5 -104.5q0 -65 -39.5 -104t-105.5 -39q-65 0 -105 39.5t-40 103.5zM575 1364q0 65 40.5 104t105.5 39q66 0 105.5 -38.5t39.5 -104.5q0 -65 -39.5 -104t-105.5 -39q-65 0 -105.5 39.5t-40.5 103.5z" />
<glyph unicode="&#xa9;" horiz-adv-x="1576" d="M102 625q0 157 54 287.5t148 216.5t219.5 133t269.5 47q315 0 498.5 -177.5t183.5 -478.5q0 -203 -86.5 -359.5t-243 -241.5t-357.5 -85q-167 0 -298.5 50t-215.5 139t-128 208.5t-44 260.5zM268 627q0 -240 139 -376t386 -136q243 0 381.5 140.5t138.5 385.5 q0 247 -143 383.5t-377 136.5q-232 0 -378.5 -142.5t-146.5 -391.5zM428 645q0 181 100.5 289t290.5 108q118 0 230 -41v-227l-111 8l-16 84q-6 25 -21 31q-35 14 -92 14q-199 0 -199 -270q0 -266 211 -266q51 0 80 10q14 6 19 23l24 104h103v-217q-82 -49 -234 -49 q-199 0 -292 107t-93 292z" />
<glyph unicode="&#xab;" horiz-adv-x="966" d="M72 526l182 310h250l-164 -285q-12 -19 -2 -39l156 -301h-246zM463 526l182 310h250l-164 -285q-12 -19 -2 -39l156 -301h-246z" />
<glyph unicode="&#xad;" horiz-adv-x="636" d="M41 465v260h555v-260h-555z" />
<glyph unicode="&#xae;" horiz-adv-x="927" d="M82 969q0 173 109.5 278t273.5 105q174 0 277.5 -101t103.5 -268q0 -169 -107 -275t-276 -106q-181 0 -281 102.5t-100 264.5zM182 971q0 -129 76 -203t207 -74q130 0 205 76t75 207q0 134 -77.5 208.5t-202.5 74.5q-122 0 -202.5 -78t-80.5 -211zM295 786v50l29 4 q10 2 10 14v252q0 12 -10 14l-29 4v54h182q141 0 141 -111q0 -80 -71 -104q26 -8 39 -39l28 -70q4 -9 17 -12l31 -6v-50h-125l-41 109q-8 24 -16.5 33.5t-26.5 9.5h-25v-84q0 -10 10 -12l31 -6v-50h-174zM428 1006h29q32 0 49.5 11.5t17.5 43.5q0 47 -61 47h-35v-102z" />
<glyph unicode="&#xaf;" d="M186 1227v205h650v-205h-650z" />
<glyph unicode="&#xb4;" d="M281 1251l313 357l168 -160l-367 -299z" />
<glyph unicode="&#xb8;" d="M281 -518l12 139q32 -4 51 -4q141 0 141 102q0 83 -135 86l33 256l147 -16l-18 -137q67 -12 114.5 -57.5t47.5 -126.5q0 -107 -76.5 -177.5t-232.5 -70.5q-60 0 -84 6z" />
<glyph unicode="&#xbb;" horiz-adv-x="966" d="M72 836h250l182 -312l-176 -313h-248l158 295q6 13 5.5 20t-7.5 19zM463 836h250l182 -312l-176 -313h-248l158 295q6 13 5.5 20t-7.5 19z" />
<glyph unicode="&#xc1;" horiz-adv-x="1554" d="M6 0v160l90 22q42 10 51 39l449 1262h362l447 -1266q5 -17 15.5 -23.5t33.5 -11.5l94 -22v-160h-647v160l168 18l-74 213h-508l-71 -213l162 -18v-160h-572zM551 612h383l-182 557h-13zM553 1706l422 250l104 -203l-454 -182z" />
<glyph unicode="&#xc9;" horiz-adv-x="1284" d="M78 0v160l129 14q22 3 27.5 10.5t5.5 30.5v1051q0 24 -6 32t-27 9l-129 14v162h1089v-414l-225 10l-29 156q-3 15 -10 21t-24 6h-322v-404h479v-227h-479v-412h367q17 0 23 4t9 19l33 180h223v-422h-1134zM422 1706l422 250l104 -203l-454 -182z" />
<glyph unicode="&#xcd;" horiz-adv-x="827" d="M74 0v160l149 14q21 1 27 9t6 32v1049q0 24 -6 32t-27 9l-149 14v164h688v-164l-158 -16q-23 -3 -28 -9t-5 -30v-1047q0 -25 5 -31.5t28 -9.5l158 -16v-160h-688zM193 1706l421 250l105 -203l-455 -182z" />
<glyph unicode="&#xd3;" horiz-adv-x="1554" d="M63 737q0 166 47 305.5t137 244t231 163.5t319 59q142 0 258 -38t196 -105.5t135 -161.5t80 -204t25 -236q0 -244 -78 -418.5t-242 -272.5t-403 -98q-146 0 -263.5 37t-199.5 103.5t-136.5 162t-80 210t-25.5 249.5zM391 743q0 -267 102 -391.5t287 -124.5q385 0 385 518 q0 258 -96.5 382t-275.5 124q-185 0 -293.5 -127t-108.5 -381zM567 1714l422 250l105 -203l-455 -182z" />
<glyph unicode="&#xda;" horiz-adv-x="1607" d="M61 1321v162h648v-162l-138 -16q-23 -3 -27.5 -9t-4.5 -30v-670q0 -94 12 -157.5t42 -112t85 -71t137 -22.5q164 0 230.5 80.5t66.5 274.5v678q0 24 -6 32t-27 9l-129 14v162h606v-162l-137 -16q-23 -3 -28 -9t-5 -30v-736q0 -283 -152 -419t-431 -136q-304 0 -443 137 t-139 427v727q0 24 -6 32t-27 9zM608 1706l422 250l105 -203l-455 -182z" />
<glyph unicode="&#xdd;" horiz-adv-x="1384" d="M6 1323l21 160h614v-160l-160 -18l248 -484h16l248 484l-157 18l20 160h522v-160l-86 -23q-39 -10 -51 -38l-371 -705v-340q0 -23 5.5 -30.5t27.5 -8.5l217 -16v-162h-803v162l205 14q21 1 27 9t6 32v336l-408 713q-14 23 -49 34zM498 1706l422 250l104 -203l-455 -182z " />
<glyph unicode="&#xe1;" horiz-adv-x="1140" d="M68 279q0 152 94 227.5t289 87.5l235 16v113q0 42 -4 67t-17 49t-41.5 35t-74.5 11q-82 0 -116 -25.5t-34 -111.5l-288 24q0 315 440 315q239 0 337.5 -79.5t98.5 -290.5v-498q0 -25 5 -31.5t28 -9.5l98 -16v-162h-377l-20 111l-10 2q-142 -138 -344 -138q-74 0 -130 20 t-87 50t-50.5 72.5t-25.5 80.5t-6 81zM324 1251l313 357l168 -160l-367 -299zM383 309q0 -112 117 -112q88 0 186 73v170l-139 -10q-91 -6 -127.5 -33t-36.5 -88z" />
<glyph unicode="&#xe9;" horiz-adv-x="1075" d="M55 541q0 135 39.5 241t109.5 171.5t161 99.5t198 34q213 0 332 -120t119 -375q0 -55 -4 -137h-627q8 -116 65 -179t177 -63q114 0 305 70l76 -203q-219 -105 -420 -105q-144 0 -249 43t-165.5 121.5t-88.5 178t-28 223.5zM326 1251l313 357l168 -160l-367 -299zM385 649 h326q-1 120 -42.5 168.5t-111.5 48.5q-157 0 -172 -217z" />
<glyph unicode="&#xed;" horiz-adv-x="647" d="M41 0v162l104 14q22 3 27.5 10.5t5.5 30.5v602q0 35 -26 43l-111 39l22 166h424v-850q0 -25 5 -31.5t28 -9.5l105 -14v-162h-584zM59 1247l314 357l168 -160l-367 -299z" />
<glyph unicode="&#xf3;" horiz-adv-x="1189" d="M55 526q0 263 139.5 412t413.5 149q139 0 242 -39.5t164.5 -112.5t91 -169t29.5 -217q0 -269 -139 -421.5t-414 -152.5q-137 0 -240 40.5t-165 115t-92 173t-30 222.5zM379 537q0 -347 217 -347q105 0 160 82t55 267q0 176 -51.5 251.5t-155.5 75.5q-108 0 -166.5 -76.5 t-58.5 -252.5zM381 1251l313 357l168 -160l-366 -299z" />
<glyph unicode="&#xfa;" horiz-adv-x="1275" d="M41 899l20 168h420v-678q0 -97 22.5 -134.5t86.5 -37.5q108 0 211 94v527q0 25 -5 30.5t-28 10.5l-88 20l22 168h408v-850q0 -22 5 -30t24 -9l102 -14v-164h-381l-16 111l-10 2q-40 -30 -70 -49t-77 -42.5t-101.5 -35t-116.5 -11.5q-158 0 -227.5 89t-69.5 272v500 q0 25 -5 32t-28 11zM418 1251l313 357l168 -160l-367 -299z" />
<glyph unicode="&#xfd;" horiz-adv-x="1267" d="M6 901l33 166h543v-166l-129 -16l227 -541h14l217 541l-133 16l27 166h457v-166l-66 -12q-40 -6 -51 -35l-451 -1102l213 -22v-164h-682v166l160 18q19 1 30.5 11.5t20.5 33.5l88 195l-391 856q-6 18 -14.5 24t-28.5 11zM426 1251l313 357l168 -160l-366 -299z" />
<glyph unicode="&#x100;" horiz-adv-x="1554" d="M6 0v160l90 22q42 10 51 39l449 1262h362l447 -1266q5 -17 15.5 -23.5t33.5 -11.5l94 -22v-160h-647v160l168 18l-74 213h-508l-71 -213l162 -18v-160h-572zM455 1608v204h649v-204h-649zM551 612h383l-182 557h-13z" />
<glyph unicode="&#x101;" horiz-adv-x="1140" d="M68 279q0 152 94 227.5t289 87.5l235 16v113q0 42 -4 67t-17 49t-41.5 35t-74.5 11q-82 0 -116 -25.5t-34 -111.5l-288 24q0 315 440 315q239 0 337.5 -79.5t98.5 -290.5v-498q0 -25 5 -31.5t28 -9.5l98 -16v-162h-377l-20 111l-10 2q-142 -138 -344 -138q-74 0 -130 20 t-87 50t-50.5 72.5t-25.5 80.5t-6 81zM227 1227v205h650v-205h-650zM383 309q0 -112 117 -112q88 0 186 73v170l-139 -10q-91 -6 -127.5 -33t-36.5 -88z" />
<glyph unicode="&#x102;" horiz-adv-x="1554" d="M6 0v160l90 22q42 10 51 39l449 1262h362l447 -1266q5 -17 15.5 -23.5t33.5 -11.5l94 -22v-160h-647v160l168 18l-74 213h-508l-71 -213l162 -18v-160h-572zM434 1870l158 57q50 -141 186 -141q66 0 112 31.5t77 109.5l153 -57q-36 -135 -118.5 -201.5t-223.5 -66.5 t-225.5 66.5t-118.5 201.5zM551 612h383l-182 557h-13z" />
<glyph unicode="&#x103;" horiz-adv-x="1140" d="M68 279q0 152 94 227.5t289 87.5l235 16v113q0 42 -4 67t-17 49t-41.5 35t-74.5 11q-82 0 -116 -25.5t-34 -111.5l-288 24q0 315 440 315q239 0 337.5 -79.5t98.5 -290.5v-498q0 -25 5 -31.5t28 -9.5l98 -16v-162h-377l-20 111l-10 2q-142 -138 -344 -138q-74 0 -130 20 t-87 50t-50.5 72.5t-25.5 80.5t-6 81zM199 1450l155 59q53 -153 197 -153q71 0 118 36t79 117l155 -59q-37 -138 -121 -208.5t-231 -70.5q-148 0 -232.5 71t-119.5 208zM383 309q0 -112 117 -112q88 0 186 73v170l-139 -10q-91 -6 -127.5 -33t-36.5 -88z" />
<glyph unicode="&#x104;" horiz-adv-x="1554" d="M6 0v160l90 22q42 10 51 39l449 1262h362l447 -1266q5 -17 15.5 -23.5t33.5 -11.5l94 -22v-160h-211q-155 -135 -155 -233q0 -60 59 -60q39 0 107 21l57 -152q-118 -55 -242 -55q-109 0 -164 48.5t-55 133.5q0 154 191 297h-234v160l168 18l-74 213h-508l-71 -213 l162 -18v-160h-572zM551 612h383l-182 557h-13z" />
<glyph unicode="&#x105;" horiz-adv-x="1140" d="M68 279q0 152 94 227.5t289 87.5l235 16v113q0 42 -4 67t-17 49t-41.5 35t-74.5 11q-82 0 -116 -25.5t-34 -111.5l-288 24q0 315 440 315q239 0 337.5 -79.5t98.5 -290.5v-498q0 -25 5 -31.5t28 -9.5l98 -16v-162h-2q-86 -34 -147.5 -101.5t-61.5 -131.5q0 -60 60 -60 q38 0 106 21l57 -152q-118 -55 -241 -55q-109 0 -164 48.5t-55 133.5q0 89 61.5 168t151.5 129h-142l-20 111l-10 2q-142 -138 -344 -138q-74 0 -130 20t-87 50t-50.5 72.5t-25.5 80.5t-6 81zM383 309q0 -112 117 -112q88 0 186 73v170l-139 -10q-91 -6 -127.5 -33 t-36.5 -88z" />
<glyph unicode="&#x106;" horiz-adv-x="1386" d="M63 748q0 165 48 303t141 240.5t239.5 160t333.5 57.5q130 0 256 -30.5t209 -85.5v-402l-225 19l-33 200q-6 29 -33 37q-80 25 -182 25q-199 0 -312.5 -134t-113.5 -390q0 -266 108.5 -402.5t303.5 -136.5q116 0 205 27q19 4 25 12t11 31l31 190h219v-381 q-88 -54 -227.5 -83.5t-284.5 -29.5q-188 0 -327 53.5t-224.5 155.5t-126.5 242t-41 322zM565 1706l422 250l105 -203l-455 -182z" />
<glyph unicode="&#x107;" horiz-adv-x="1044" d="M55 518q0 278 153 423.5t408 145.5q112 0 212 -26t153 -60v-321l-219 10l-25 135q-4 26 -24 33q-44 14 -105 14q-101 0 -164 -77t-63 -246q0 -342 264 -342q123 0 256 59l80 -190q-74 -45 -177.5 -73t-211.5 -28q-136 0 -240 41t-168 114.5t-96.5 171t-32.5 216.5z M369 1251l313 357l168 -160l-367 -299z" />
<glyph unicode="&#x108;" horiz-adv-x="1386" d="M63 748q0 165 48 303t141 240.5t239.5 160t333.5 57.5q130 0 256 -30.5t209 -85.5v-402l-225 19l-33 200q-6 29 -33 37q-80 25 -182 25q-199 0 -312.5 -134t-113.5 -390q0 -266 108.5 -402.5t303.5 -136.5q116 0 205 27q19 4 25 12t11 31l31 190h219v-381 q-88 -54 -227.5 -83.5t-284.5 -29.5q-188 0 -327 53.5t-224.5 155.5t-126.5 242t-41 322zM436 1686l248 229h213l248 -229l-113 -115l-241 166l-242 -166z" />
<glyph unicode="&#x109;" horiz-adv-x="1044" d="M55 518q0 278 153 423.5t408 145.5q112 0 212 -26t153 -60v-321l-219 10l-25 135q-4 26 -24 33q-44 14 -105 14q-101 0 -164 -77t-63 -246q0 -342 264 -342q123 0 256 59l80 -190q-74 -45 -177.5 -73t-211.5 -28q-136 0 -240 41t-168 114.5t-96.5 171t-32.5 216.5z M238 1257l251 265h213l252 -265l-123 -106l-235 190l-236 -190z" />
<glyph unicode="&#x10a;" horiz-adv-x="1386" d="M63 748q0 165 48 303t141 240.5t239.5 160t333.5 57.5q130 0 256 -30.5t209 -85.5v-402l-225 19l-33 200q-6 29 -33 37q-80 25 -182 25q-199 0 -312.5 -134t-113.5 -390q0 -266 108.5 -402.5t303.5 -136.5q116 0 205 27q19 4 25 12t11 31l31 190h219v-381 q-88 -54 -227.5 -83.5t-284.5 -29.5q-188 0 -327 53.5t-224.5 155.5t-126.5 242t-41 322zM606 1784q0 87 48.5 133.5t136.5 46.5q90 0 138 -46.5t48 -133.5q0 -88 -48.5 -136.5t-137.5 -48.5q-88 0 -136.5 48.5t-48.5 136.5z" />
<glyph unicode="&#x10b;" horiz-adv-x="1044" d="M55 518q0 278 153 423.5t408 145.5q112 0 212 -26t153 -60v-321l-219 10l-25 135q-4 26 -24 33q-44 14 -105 14q-101 0 -164 -77t-63 -246q0 -342 264 -342q123 0 256 59l80 -190q-74 -45 -177.5 -73t-211.5 -28q-136 0 -240 41t-168 114.5t-96.5 171t-32.5 216.5z M412 1421q0 87 48 134t136 47q89 0 137.5 -46.5t48.5 -134.5q0 -89 -48.5 -137.5t-137.5 -48.5q-88 0 -136 48.5t-48 137.5z" />
<glyph unicode="&#x10c;" horiz-adv-x="1386" d="M63 748q0 165 48 303t141 240.5t239.5 160t333.5 57.5q130 0 256 -30.5t209 -85.5v-402l-225 19l-33 200q-6 29 -33 37q-80 25 -182 25q-199 0 -312.5 -134t-113.5 -390q0 -266 108.5 -402.5t303.5 -136.5q116 0 205 27q19 4 25 12t11 31l31 190h219v-381 q-88 -54 -227.5 -83.5t-284.5 -29.5q-188 0 -327 53.5t-224.5 155.5t-126.5 242t-41 322zM436 1823l111 116l244 -165l241 165l113 -116l-248 -228h-213z" />
<glyph unicode="&#x10d;" horiz-adv-x="1044" d="M55 518q0 278 153 423.5t408 145.5q112 0 212 -26t153 -60v-321l-219 10l-25 135q-4 26 -24 33q-44 14 -105 14q-101 0 -164 -77t-63 -246q0 -342 264 -342q123 0 256 59l80 -190q-74 -45 -177.5 -73t-211.5 -28q-136 0 -240 41t-168 114.5t-96.5 171t-32.5 216.5z M240 1454l122 109l234 -191l238 191l120 -107l-252 -264h-213z" />
<glyph unicode="&#x10e;" horiz-adv-x="1540" d="M78 0v164l129 14q21 1 27 9t6 32v1047q0 23 -5.5 30.5t-27.5 10.5l-129 14v162h663q374 0 555 -188t181 -531q0 -173 -46.5 -311.5t-139 -240.5t-241 -157t-343.5 -55h-629zM340 1823l111 116l243 -165l242 165l113 -116l-248 -228h-213zM557 221h117q132 0 226.5 37.5 t149.5 108.5t80 164t25 214q0 279 -110.5 398t-358.5 119h-129v-1041z" />
<glyph unicode="&#x10f;" horiz-adv-x="1472" d="M72 520q0 149 35.5 261.5t97 177.5t137 96.5t164.5 31.5q155 0 289 -98v311q0 32 -27 41l-113 39l23 166h412v-1331q0 -24 4.5 -30t27.5 -9l99 -14v-162h-381l-21 115l-14 2q-70 -69 -150 -105.5t-186 -36.5q-397 0 -397 545zM395 526q0 -309 187 -309q97 0 200 88v483 q-90 62 -176 62q-108 0 -159.5 -88.5t-51.5 -235.5zM1180 1141q41 164 41 241q0 75 -27 127l215 82q39 -56 39 -135q0 -42 -12 -92q-35 -121 -109 -266z" />
<glyph unicode="&#x110;" horiz-adv-x="1540" d="M78 0v164l129 14q21 1 27 9t6 32v416h-131v219h131v412q0 23 -5.5 30.5t-27.5 10.5l-129 14v162h663q374 0 555 -188t181 -531q0 -173 -46.5 -311.5t-139 -240.5t-241 -157t-343.5 -55h-629zM557 221h117q132 0 226.5 37.5t149.5 108.5t80 164t25 214q0 279 -110.5 398 t-358.5 119h-129v-408h291v-219h-291v-414z" />
<glyph unicode="&#x111;" horiz-adv-x="1249" d="M70 500q0 115 23.5 206t63.5 150t96.5 98t118 55.5t132.5 16.5q155 0 289 -98v170h-338v176h338v26q0 32 -27 41l-113 39l23 166h411v-272h107v-176h-107v-883q0 -24 5 -30t28 -9l99 -14v-162h-381l-21 115l-14 2q-70 -69 -150 -105.5t-186 -36.5q-189 0 -293 127.5 t-104 397.5zM393 506q0 -146 45.5 -217.5t141.5 -71.5q97 0 200 88v422q-89 61 -176 61q-211 0 -211 -282z" />
<glyph unicode="&#x112;" horiz-adv-x="1284" d="M78 0v160l129 14q22 3 27.5 10.5t5.5 30.5v1051q0 24 -6 32t-27 9l-129 14v162h1089v-414l-225 10l-29 156q-3 15 -10 21t-24 6h-322v-404h479v-227h-479v-412h367q17 0 23 4t9 19l33 180h223v-422h-1134zM324 1608v204h649v-204h-649z" />
<glyph unicode="&#x113;" horiz-adv-x="1075" d="M55 541q0 135 39.5 241t109.5 171.5t161 99.5t198 34q213 0 332 -120t119 -375q0 -55 -4 -137h-627q8 -116 65 -179t177 -63q114 0 305 70l76 -203q-219 -105 -420 -105q-144 0 -249 43t-165.5 121.5t-88.5 178t-28 223.5zM229 1227v205h650v-205h-650zM385 649h326 q-1 120 -42.5 168.5t-111.5 48.5q-157 0 -172 -217z" />
<glyph unicode="&#x114;" horiz-adv-x="1284" d="M78 0v160l129 14q22 3 27.5 10.5t5.5 30.5v1051q0 24 -6 32t-27 9l-129 14v162h1089v-414l-225 10l-29 156q-3 15 -10 21t-24 6h-322v-404h479v-227h-479v-412h367q17 0 23 4t9 19l33 180h223v-422h-1134zM303 1870l158 57q50 -141 186 -141q66 0 112 31.5t77 109.5 l153 -57q-36 -135 -118.5 -201.5t-223.5 -66.5t-225.5 66.5t-118.5 201.5z" />
<glyph unicode="&#x115;" horiz-adv-x="1075" d="M55 541q0 135 39.5 241t109.5 171.5t161 99.5t198 34q213 0 332 -120t119 -375q0 -55 -4 -137h-627q8 -116 65 -179t177 -63q114 0 305 70l76 -203q-219 -105 -420 -105q-144 0 -249 43t-165.5 121.5t-88.5 178t-28 223.5zM201 1450l155 59q53 -153 197 -153q71 0 118 36 t79 117l155 -59q-37 -138 -121 -208.5t-231 -70.5q-148 0 -232.5 71t-119.5 208zM385 649h326q-1 120 -42.5 168.5t-111.5 48.5q-157 0 -172 -217z" />
<glyph unicode="&#x116;" horiz-adv-x="1284" d="M78 0v160l129 14q22 3 27.5 10.5t5.5 30.5v1051q0 24 -6 32t-27 9l-129 14v162h1089v-414l-225 10l-29 156q-3 15 -10 21t-24 6h-322v-404h479v-227h-479v-412h367q17 0 23 4t9 19l33 180h223v-422h-1134zM463 1784q0 87 48 133.5t136 46.5q90 0 138.5 -46.5t48.5 -133.5 q0 -88 -49 -136.5t-138 -48.5q-88 0 -136 48.5t-48 136.5z" />
<glyph unicode="&#x117;" horiz-adv-x="1075" d="M55 541q0 135 39.5 241t109.5 171.5t161 99.5t198 34q213 0 332 -120t119 -375q0 -55 -4 -137h-627q8 -116 65 -179t177 -63q114 0 305 70l76 -203q-219 -105 -420 -105q-144 0 -249 43t-165.5 121.5t-88.5 178t-28 223.5zM369 1421q0 87 48 134t136 47q89 0 137.5 -46.5 t48.5 -134.5q0 -89 -48.5 -137.5t-137.5 -48.5q-88 0 -136 48.5t-48 137.5zM385 649h326q-1 120 -42.5 168.5t-111.5 48.5q-157 0 -172 -217z" />
<glyph unicode="&#x118;" horiz-adv-x="1284" d="M78 0v160l129 14q22 3 27.5 10.5t5.5 30.5v1051q0 24 -6 32t-27 9l-129 14v162h1089v-414l-225 10l-29 156q-3 15 -10 21t-24 6h-322v-404h479v-227h-479v-412h367q17 0 23 4t9 19l33 180h223v-422q-86 -34 -147 -101.5t-61 -131.5q0 -60 59 -60q38 0 106 21l58 -152 q-118 -55 -242 -55q-109 0 -164 48.5t-55 133.5q0 89 61.5 168t151.5 129h-901z" />
<glyph unicode="&#x119;" horiz-adv-x="1075" d="M55 541q0 135 39.5 241t109.5 171.5t161 99.5t198 34q213 0 332 -120.5t119 -380.5q0 -37 -4 -119h-627q6 -126 64 -190t178 -64q114 0 305 70l76 -203q-17 -9 -71 -34t-81 -40q-74 -42 -124 -109t-50 -130q0 -60 59 -60q39 0 107 21l57 -152q-118 -55 -241 -55 q-109 0 -164.5 48.5t-55.5 133.5q0 140 160 272h-16q-144 0 -249 43t-165.5 121.5t-88.5 178t-28 223.5zM385 645h326q-1 124 -42 172.5t-112 48.5q-73 0 -118.5 -49.5t-53.5 -171.5z" />
<glyph unicode="&#x11a;" horiz-adv-x="1284" d="M78 0v160l129 14q22 3 27.5 10.5t5.5 30.5v1051q0 24 -6 32t-27 9l-129 14v162h1089v-414l-225 10l-29 156q-3 15 -10 21t-24 6h-322v-404h479v-227h-479v-412h367q17 0 23 4t9 19l33 180h223v-422h-1134zM293 1823l110 116l244 -165l242 165l112 -116l-247 -228h-213z " />
<glyph unicode="&#x11b;" horiz-adv-x="1075" d="M55 541q0 135 39.5 241t109.5 171.5t161 99.5t198 34q213 0 332 -120t119 -375q0 -55 -4 -137h-627q8 -116 65 -179t177 -63q114 0 305 70l76 -203q-219 -105 -420 -105q-144 0 -249 43t-165.5 121.5t-88.5 178t-28 223.5zM197 1454l122 109l234 -191l238 191l120 -107 l-252 -264h-213zM385 649h326q-1 120 -42.5 168.5t-111.5 48.5q-157 0 -172 -217z" />
<glyph unicode="&#x11c;" horiz-adv-x="1478" d="M61 745q0 166 48 304.5t141.5 241.5t241.5 160.5t337 57.5q120 0 247.5 -30t215.5 -88v-387l-227 16l-31 184q-4 21 -11.5 29.5t-21.5 11.5q-98 27 -188 27q-197 0 -309.5 -140t-112.5 -382q0 -258 110 -398.5t326 -140.5q88 0 170 14q18 3 25.5 10.5t7.5 26.5v268h-227 l28 185h629v-164l-84 -8q-19 -2 -26 -8t-7 -21v-440q-209 -99 -530 -99q-164 0 -292.5 38t-214 105.5t-141.5 165.5t-80 211.5t-24 249.5zM428 1686l248 229h213l248 -229l-113 -115l-242 166l-241 -166z" />
<glyph unicode="&#x11d;" horiz-adv-x="1165" d="M49 -209q0 64 26 108t87 101q-90 38 -90 135q0 63 59 125q47 49 127 123q-79 39 -127.5 118.5t-48.5 188.5q0 182 120 289.5t349 107.5q110 0 188 -20h400v-174l-189 -14q76 -97 76 -207q0 -168 -120 -264.5t-316 -96.5q-92 0 -162 19l-68 -109l201 -12q246 -16 331 -34 q149 -32 199 -120q33 -59 33 -151q0 -177 -147.5 -273t-415.5 -96q-270 0 -391 65t-121 191zM211 1257l252 265h213l252 -265l-123 -106l-236 190l-235 -190zM291 -164q0 -106 248 -106q56 0 95.5 3t87 14t72.5 36.5t25 64.5q0 16 -5.5 28t-19.5 20t-25.5 12.5t-37 8 t-40.5 4.5t-48 3l-299 21q-53 -65 -53 -109zM373 696q0 -79 46.5 -124.5t143.5 -45.5q87 0 140 47.5t53 126.5q0 90 -49 137.5t-138 47.5q-90 0 -143 -46.5t-53 -142.5z" />
<glyph unicode="&#x11e;" horiz-adv-x="1478" d="M61 745q0 166 48 304.5t141.5 241.5t241.5 160.5t337 57.5q120 0 247.5 -30t215.5 -88v-387l-227 16l-31 184q-4 21 -11.5 29.5t-21.5 11.5q-98 27 -188 27q-197 0 -309.5 -140t-112.5 -382q0 -258 110 -398.5t326 -140.5q88 0 170 14q18 3 25.5 10.5t7.5 26.5v268h-227 l28 185h629v-164l-84 -8q-19 -2 -26 -8t-7 -21v-440q-209 -99 -530 -99q-164 0 -292.5 38t-214 105.5t-141.5 165.5t-80 211.5t-24 249.5zM438 1870l158 57q50 -141 186 -141q66 0 112 31.5t77 109.5l153 -57q-36 -135 -118.5 -201.5t-223.5 -66.5t-225.5 66.5t-118.5 201.5 z" />
<glyph unicode="&#x11f;" horiz-adv-x="1165" d="M49 -209q0 64 26 108t87 101q-90 38 -90 135q0 63 59 125q47 49 127 123q-79 39 -127.5 118.5t-48.5 188.5q0 182 120 289.5t349 107.5q110 0 188 -20h400v-174l-189 -14q76 -97 76 -207q0 -168 -120 -264.5t-316 -96.5q-92 0 -162 19l-68 -109l201 -12q246 -16 331 -34 q149 -32 199 -120q33 -59 33 -151q0 -177 -147.5 -273t-415.5 -96q-270 0 -391 65t-121 191zM217 1450l156 59q53 -153 196 -153q71 0 118 36t79 117l156 -59q-37 -137 -121.5 -208t-231.5 -71q-148 0 -232.5 71t-119.5 208zM291 -164q0 -106 248 -106q56 0 95.5 3t87 14 t72.5 36.5t25 64.5q0 16 -5.5 28t-19.5 20t-25.5 12.5t-37 8t-40.5 4.5t-48 3l-299 21q-53 -65 -53 -109zM373 696q0 -79 46.5 -124.5t143.5 -45.5q87 0 140 47.5t53 126.5q0 90 -49 137.5t-138 47.5q-90 0 -143 -46.5t-53 -142.5z" />
<glyph unicode="&#x120;" horiz-adv-x="1478" d="M61 745q0 166 48 304.5t141.5 241.5t241.5 160.5t337 57.5q120 0 247.5 -30t215.5 -88v-387l-227 16l-31 184q-4 21 -11.5 29.5t-21.5 11.5q-98 27 -188 27q-197 0 -309.5 -140t-112.5 -382q0 -258 110 -398.5t326 -140.5q88 0 170 14q18 3 25.5 10.5t7.5 26.5v268h-227 l28 185h629v-164l-84 -8q-19 -2 -26 -8t-7 -21v-440q-209 -99 -530 -99q-164 0 -292.5 38t-214 105.5t-141.5 165.5t-80 211.5t-24 249.5zM598 1784q0 87 48 133.5t136 46.5q90 0 138.5 -46.5t48.5 -133.5q0 -88 -49 -136.5t-138 -48.5q-88 0 -136 48.5t-48 136.5z" />
<glyph unicode="&#x121;" horiz-adv-x="1165" d="M49 -209q0 64 26 108t87 101q-90 38 -90 135q0 63 59 125q47 49 127 123q-79 39 -127.5 118.5t-48.5 188.5q0 182 120 289.5t349 107.5q110 0 188 -20h400v-174l-189 -14q76 -97 76 -207q0 -168 -120 -264.5t-316 -96.5q-92 0 -162 19l-68 -109l201 -12q246 -16 331 -34 q149 -32 199 -120q33 -59 33 -151q0 -177 -147.5 -273t-415.5 -96q-270 0 -391 65t-121 191zM291 -164q0 -106 248 -106q56 0 95.5 3t87 14t72.5 36.5t25 64.5q0 16 -5.5 28t-19.5 20t-25.5 12.5t-37 8t-40.5 4.5t-48 3l-299 21q-53 -65 -53 -109zM373 696 q0 -79 46.5 -124.5t143.5 -45.5q87 0 140 47.5t53 126.5q0 90 -49 137.5t-138 47.5q-90 0 -143 -46.5t-53 -142.5zM385 1421q0 87 48 134t136 47q90 0 138.5 -47t48.5 -134q0 -89 -49 -137.5t-138 -48.5q-88 0 -136 48.5t-48 137.5z" />
<glyph unicode="&#x122;" horiz-adv-x="1478" d="M61 745q0 166 48 304.5t141.5 241.5t241.5 160.5t337 57.5q120 0 247.5 -30t215.5 -88v-387l-227 16l-31 184q-4 21 -11.5 29.5t-21.5 11.5q-98 27 -188 27q-197 0 -309.5 -140t-112.5 -382q0 -258 110 -398.5t326 -140.5q88 0 170 14q18 3 25.5 10.5t7.5 26.5v268h-227 l28 185h629v-164l-84 -8q-19 -2 -26 -8t-7 -21v-440q-209 -99 -530 -99q-164 0 -292.5 38t-214 105.5t-141.5 165.5t-80 211.5t-24 249.5zM631 -313l43 200q51 -1 86.5 -4t73 -12t59.5 -25t36.5 -43.5t14.5 -66.5q0 -59 -39 -139l-94 -197l-133 39l43 196q7 20 -10 25z" />
<glyph unicode="&#x123;" horiz-adv-x="1165" d="M49 -209q0 64 26 108t87 101q-90 38 -90 135q0 63 59 125q47 49 127 123q-79 39 -127.5 118.5t-48.5 188.5q0 182 120 289.5t349 107.5q110 0 188 -20h400v-174l-189 -14q76 -97 76 -207q0 -168 -120 -264.5t-316 -96.5q-92 0 -162 19l-68 -109l201 -12q246 -16 331 -34 q149 -32 199 -120q33 -59 33 -151q0 -177 -147.5 -273t-415.5 -96q-270 0 -391 65t-121 191zM291 -164q0 -106 248 -106q56 0 95.5 3t87 14t72.5 36.5t25 64.5q0 16 -5.5 28t-19.5 20t-25.5 12.5t-37 8t-40.5 4.5t-48 3l-299 21q-53 -65 -53 -109zM373 696 q0 -79 46.5 -124.5t143.5 -45.5q87 0 140 47.5t53 126.5q0 90 -49 137.5t-138 47.5q-90 0 -143 -46.5t-53 -142.5zM416 1300q0 60 39 140l94 196l133 -39l-43 -196q-7 -19 10 -25l80 -26l-43 -201q-51 1 -86.5 4t-73 12t-59.5 25t-36.5 43.5t-14.5 66.5z" />
<glyph unicode="&#x124;" horiz-adv-x="1675" d="M78 0v160l129 14q22 3 27.5 10.5t5.5 30.5v1049q0 24 -6 32t-27 9l-129 14v164h649v-164l-137 -16q-23 -3 -28 -9t-5 -30v-387h561v387q0 24 -6 32t-27 9l-129 14v164h648v-164l-138 -16q-23 -3 -27.5 -9t-4.5 -30v-1047q0 -25 4.5 -31.5t27.5 -9.5l138 -16v-160h-648 v160l129 14q22 3 27.5 10.5t5.5 30.5v432h-561v-430q0 -25 5 -31.5t28 -9.5l137 -16v-160h-649zM492 1686l247 229h213l248 -229l-113 -115l-241 166l-242 -166z" />
<glyph unicode="&#x125;" horiz-adv-x="1277" d="M-43 1731l221 229h213l221 -229l-112 -115l-215 166l-215 -166zM39 1380l22 166h422v-579l11 -2q148 122 327 122q158 0 227.5 -83t69.5 -248v-539q0 -25 5 -31.5t28 -9.5l102 -14v-162h-444v668q0 174 -109 174q-53 0 -111.5 -22.5t-101.5 -53.5v-549q0 -25 5 -31.5 t28 -9.5l98 -14v-162h-565v162l92 14q22 3 27.5 10.5t5.5 30.5v1081q0 35 -26 43z" />
<glyph unicode="&#x126;" horiz-adv-x="1705" d="M94 0v160l129 14q22 3 27.5 10.5t5.5 30.5v786h-135v179h135v84q0 24 -6 32t-27 9l-129 14v164h649v-164l-137 -16q-23 -3 -28 -9t-5 -30v-84h562v84q0 24 -6 32t-27 9l-129 14v164h647v-164l-137 -16q-23 -3 -28 -9t-5 -30v-84h137v-179h-137v-784q0 -25 5 -31.5 t28 -9.5l137 -16v-160h-647v160l129 14q22 3 27.5 10.5t5.5 30.5v432h-562v-430q0 -25 5 -31.5t28 -9.5l137 -16v-160h-649zM573 877h562v124h-562v-124z" />
<glyph unicode="&#x127;" horiz-adv-x="1277" d="M39 1380l22 166h422v-272h318v-176h-318v-193l11 -2q149 123 327 123q158 0 227.5 -83t69.5 -249v-477q0 -25 5 -31.5t28 -9.5l102 -14v-162h-444v606q0 174 -109 174q-53 0 -112 -22t-101 -53v-488q0 -25 5 -31.5t28 -9.5l98 -14v-162h-565v162l92 14q22 3 27.5 10.5 t5.5 30.5v881h-117v176h117v24q0 35 -26 43z" />
<glyph unicode="&#x128;" horiz-adv-x="827" d="M49 1669l62 105q60 102 135 102q43 0 129 -25q174 -45 203 -51q21 -5 32 8l60 64l121 -74l-46 -82q-34 -63 -63.5 -90t-71.5 -27q-15 0 -32 2.5t-30 5.5t-40.5 10t-44.5 11q-26 6 -77 19.5t-83 21.5t-41 8q-14 0 -33 -16l-67 -64zM74 0v160l149 14q21 1 27 9t6 32v1049 q0 24 -6 32t-27 9l-149 14v164h688v-164l-158 -16q-23 -3 -28 -9t-5 -30v-1047q0 -25 5 -31.5t28 -9.5l158 -16v-160h-688z" />
<glyph unicode="&#x129;" horiz-adv-x="647" d="M-68 1249l60 105q57 102 129 102q45 0 125 -24q26 -7 70 -19t76.5 -20.5t47.5 -12.5q20 -5 31 9l57 63l117 -74l-43 -82q-34 -63 -62 -89.5t-69 -26.5q-14 0 -31 2.5t-28 5t-39.5 10t-42.5 10.5q-23 6 -73 20t-80.5 21.5t-39.5 7.5q-15 0 -31 -16l-65 -63zM41 0v162 l104 14q22 3 27.5 10.5t5.5 30.5v602q0 35 -26 43l-111 39l22 166h424v-850q0 -25 5 -31.5t28 -9.5l105 -14v-162h-584z" />
<glyph unicode="&#x12a;" horiz-adv-x="827" d="M74 0v160l149 14q21 1 27 9t6 32v1049q0 24 -6 32t-27 9l-149 14v164h688v-164l-158 -16q-23 -3 -28 -9t-5 -30v-1047q0 -25 5 -31.5t28 -9.5l158 -16v-160h-688zM94 1608v204h649v-204h-649z" />
<glyph unicode="&#x12b;" horiz-adv-x="647" d="M16 1221v204h535v-204h-535zM41 0v162l104 14q22 3 27.5 10.5t5.5 30.5v602q0 35 -26 43l-111 39l22 166h424v-850q0 -25 5 -31.5t28 -9.5l105 -14v-162h-584z" />
<glyph unicode="&#x12c;" horiz-adv-x="827" d="M74 0v160l149 14q21 1 27 9t6 32v1049q0 24 -6 32t-27 9l-149 14v164h688v-164l-158 -16q-23 -3 -28 -9t-5 -30v-1047q0 -25 5 -31.5t28 -9.5l158 -16v-160h-688zM74 1870l157 57q50 -141 187 -141q66 0 111.5 31.5t76.5 109.5l154 -57q-36 -135 -118.5 -201.5 t-223.5 -66.5t-225.5 66.5t-118.5 201.5z" />
<glyph unicode="&#x12d;" horiz-adv-x="647" d="M-41 1444l156 59q25 -79 67 -116t105 -37t103 35.5t69 117.5l155 -59q-35 -138 -112.5 -208.5t-214.5 -70.5q-138 0 -216 70.5t-112 208.5zM41 0v162l104 14q22 3 27.5 10.5t5.5 30.5v602q0 35 -26 43l-111 39l22 166h424v-850q0 -25 5 -31.5t28 -9.5l105 -14v-162h-584z " />
<glyph unicode="&#x12e;" horiz-adv-x="827" d="M74 0v160l149 14q21 1 27 9t6 32v1049q0 24 -6 32t-27 9l-149 14v164h688v-164l-158 -16q-23 -3 -28 -9t-5 -30v-1047q0 -25 5 -31.5t28 -9.5l158 -16v-160h-221q-156 -136 -156 -233q0 -60 59 -60q39 0 107 21l57 -152q-118 -55 -241 -55q-109 0 -164.5 48.5 t-55.5 133.5q0 154 191 297h-264z" />
<glyph unicode="&#x12f;" horiz-adv-x="647" d="M41 0v162l104 14q22 3 27.5 10.5t5.5 30.5v602q0 35 -26 43l-111 39l22 166h424v-850q0 -25 5 -31.5t28 -9.5l105 -14v-162h-189q-155 -135 -155 -233q0 -60 59 -60q38 0 106 21l58 -152q-118 -55 -242 -55q-109 0 -164 48.5t-55 133.5q0 155 190 297h-192zM121 1415 q0 87 48 133.5t136 46.5q90 0 138.5 -46.5t48.5 -133.5q0 -88 -49 -136t-138 -48q-88 0 -136 48t-48 136z" />
<glyph unicode="&#x130;" horiz-adv-x="827" d="M74 0v160l149 14q21 1 27 9t6 32v1049q0 24 -6 32t-27 9l-149 14v164h688v-164l-158 -16q-23 -3 -28 -9t-5 -30v-1047q0 -25 5 -31.5t28 -9.5l158 -16v-160h-688zM233 1784q0 87 48.5 133.5t136.5 46.5q90 0 138 -46.5t48 -133.5q0 -88 -48.5 -136.5t-137.5 -48.5 q-88 0 -136.5 48.5t-48.5 136.5z" />
<glyph unicode="&#x131;" horiz-adv-x="647" d="M41 0v162l104 14q22 3 27.5 10.5t5.5 30.5v602q0 35 -26 43l-111 39l22 166h424v-850q0 -25 5 -31.5t28 -9.5l105 -14v-162h-584z" />
<glyph unicode="&#x132;" horiz-adv-x="1855" d="M74 0v160l149 14q21 1 27 9t6 32v1049q0 24 -6 32t-27 9l-149 14v164h688v-164l-158 -16q-23 -3 -28 -9t-5 -30v-1047q0 -25 5 -31.5t28 -9.5l158 -16v-160h-688zM885 55v365l229 -17l21 -147q3 -21 22 -27q36 -12 82 -12q56 0 78 27t22 92v930q0 22 -6 30t-26 9l-185 14 v164h705v-164l-137 -16q-23 -3 -28 -9t-5 -28v-932q0 -183 -92.5 -271t-294.5 -88q-116 0 -227.5 25t-157.5 55z" />
<glyph unicode="&#x133;" horiz-adv-x="1230" d="M41 0v162l104 14q22 3 27.5 10.5t5.5 30.5v602q0 35 -26 43l-111 39l22 166h424v-850q0 -25 5 -31.5t28 -9.5l105 -14v-162h-584zM121 1415q0 87 48 133.5t136 46.5q90 0 138.5 -46.5t48.5 -133.5q0 -88 -49 -136t-138 -48q-88 0 -136 48t-48 136zM410 -352l88 170 q89 -54 178 -54q66 0 94.5 38.5t28.5 140.5v876q0 35 -27 43l-117 39l25 166h428v-1176q0 -180 -90.5 -264t-265.5 -84q-112 0 -206 34.5t-136 70.5zM741 1415q0 87 49 133.5t138 46.5q90 0 138 -46.5t48 -133.5q0 -88 -48.5 -136t-137.5 -48q-88 0 -137.5 48.5t-49.5 135.5 z" />
<glyph unicode="&#x134;" horiz-adv-x="1056" d="M72 55v365l229 -17l21 -147q3 -21 22 -27q36 -12 82 -12q56 0 78 27t22 92v930q0 22 -6 30t-26 9l-185 14v164h705v-164l-137 -16q-23 -3 -28 -9t-5 -28v-932q0 -183 -92.5 -271t-294.5 -88q-116 0 -227.5 25t-157.5 55zM328 1686l247 229h213l248 -229l-112 -115 l-242 166l-242 -166z" />
<glyph unicode="&#x135;" horiz-adv-x="622" d="M-215 -352l88 170q89 -54 178 -54q66 0 94.5 38.5t28.5 140.5v876q0 35 -27 43l-116 39l24 166h428v-1176q0 -180 -90.5 -264t-265.5 -84q-112 0 -206 34.5t-136 70.5zM-88 1266l252 264h213l252 -264l-123 -107l-236 191l-235 -191z" />
<glyph unicode="&#x136;" horiz-adv-x="1540" d="M78 0v162l129 14q21 1 27 9t6 32v1049q0 23 -5.5 30.5t-27.5 10.5l-129 14v162h649v-162l-137 -16q-23 -3 -28 -9t-5 -30v-512l483 549l-127 16v164h537v-164l-86 -14q-27 -4 -38.5 -10.5t-25.5 -24.5l-376 -426l411 -629q13 -19 23.5 -24.5t36.5 -8.5l127 -20v-162h-453 l-383 592l-129 -154v-219q0 -25 5 -31.5t28 -9.5l158 -16v-162h-670zM618 -313l44 200q51 -1 86.5 -4t73 -12t59.5 -25t36.5 -43.5t14.5 -66.5q0 -59 -39 -139l-94 -197l-133 39l43 196q6 19 -11 25z" />
<glyph unicode="&#x137;" horiz-adv-x="1269" d="M39 1380l22 166h426v-874l375 395h283v-162l-107 -20q-19 -3 -27.5 -8.5t-23.5 -22.5l-145 -154l262 -489q10 -21 22 -27.5t39 -9.5l90 -14v-160h-397l-260 522l-111 -121v-184q0 -25 5 -31.5t28 -9.5l123 -14v-162h-600v162l102 14q22 3 27.5 10.5t5.5 30.5v1081 q0 35 -26 43zM477 -313l43 200q65 -1 107 -6t83 -20t61 -46t20 -79q0 -59 -39 -139l-95 -197l-133 39l43 196q7 20 -10 25z" />
<glyph unicode="&#x138;" horiz-adv-x="1269" d="M39 901l22 166h426v-395l375 395h283v-162l-107 -20q-19 -3 -27.5 -8.5t-23.5 -22.5l-145 -154l262 -489q10 -21 22 -27.5t39 -9.5l90 -14v-160h-397l-260 522l-111 -121v-184q0 -25 5 -31.5t28 -9.5l123 -14v-162h-600v162l102 14q22 3 27.5 10.5t5.5 30.5v602 q0 35 -26 43z" />
<glyph unicode="&#x139;" horiz-adv-x="1277" d="M78 0v162l129 14q22 3 27.5 10.5t5.5 30.5v1049q0 24 -6 32t-27 9l-129 14v162h682v-162l-170 -16q-22 -1 -27.5 -8.5t-5.5 -30.5v-1047h365q17 0 23 4t9 19l33 204h225v-446h-1134zM172 1706l422 250l104 -203l-454 -182z" />
<glyph unicode="&#x13a;" horiz-adv-x="647" d="M14 1747l422 250l105 -203l-455 -182zM39 1380l22 166h426v-1329q0 -25 5 -31.5t28 -9.5l101 -14v-162h-578v162l102 14q22 3 27.5 10.5t5.5 30.5v1081q0 35 -26 43z" />
<glyph unicode="&#x13b;" horiz-adv-x="1277" d="M78 0v162l129 14q22 3 27.5 10.5t5.5 30.5v1049q0 24 -6 32t-27 9l-129 14v162h682v-162l-170 -16q-22 -1 -27.5 -8.5t-5.5 -30.5v-1047h365q17 0 23 4t9 19l33 204h225v-446h-1134zM514 -313l43 200q51 -1 86.5 -4t73 -12t59.5 -25t36.5 -43.5t14.5 -66.5 q0 -59 -39 -139l-94 -197l-133 39l43 196q6 20 -10 25z" />
<glyph unicode="&#x13c;" horiz-adv-x="647" d="M39 1380l22 166h426v-1329q0 -25 5 -31.5t28 -9.5l101 -14v-162h-578v162l102 14q22 3 27.5 10.5t5.5 30.5v1081q0 35 -26 43zM168 -313l43 200q51 -1 86.5 -4t73 -12t59.5 -25t36.5 -43.5t14.5 -66.5q0 -59 -39 -139l-94 -197l-133 39l43 196q6 20 -10 25z" />
<glyph unicode="&#x13d;" horiz-adv-x="1277" d="M78 0v162l129 14q22 3 27.5 10.5t5.5 30.5v1049q0 24 -6 32t-27 9l-129 14v162h682v-162l-170 -16q-22 -1 -27.5 -8.5t-5.5 -30.5v-1047h365q17 0 23 4t9 19l33 204h225v-446h-1134zM864 1092q41 164 41 241t-26 127l215 82q39 -56 39 -135q0 -38 -13 -92 q-36 -125 -108 -266z" />
<glyph unicode="&#x13e;" horiz-adv-x="856" d="M39 1380l22 166h426v-1329q0 -25 5 -31.5t28 -9.5l101 -14v-162h-578v162l102 14q22 3 27.5 10.5t5.5 30.5v1081q0 35 -26 43zM567 1145q41 164 41 241t-26 127l215 82q39 -56 39 -135q0 -38 -13 -92q-36 -125 -108 -266z" />
<glyph unicode="&#x13f;" horiz-adv-x="1277" d="M78 0v162l129 14q22 3 27.5 10.5t5.5 30.5v1049q0 24 -6 32t-27 9l-129 14v162h682v-162l-170 -16q-22 -1 -27.5 -8.5t-5.5 -30.5v-1047h365q17 0 23 4t9 19l33 204h225v-446h-1134zM848 827q0 83 45.5 127.5t130.5 44.5t131.5 -44.5t46.5 -127.5q0 -85 -46.5 -130.5 t-131.5 -45.5t-130.5 45.5t-45.5 130.5z" />
<glyph unicode="&#x140;" horiz-adv-x="884" d="M39 1380l22 166h426v-1329q0 -25 5 -31.5t28 -9.5l101 -14v-162h-578v162l102 14q22 3 27.5 10.5t5.5 30.5v1081q0 35 -26 43zM592 813q0 83 45.5 127.5t130.5 44.5t131.5 -44.5t46.5 -127.5q0 -85 -46.5 -130.5t-131.5 -45.5t-130.5 45.5t-45.5 130.5z" />
<glyph unicode="&#x141;" horiz-adv-x="1277" d="M78 0v162l129 14q22 3 27.5 10.5t5.5 30.5v330l-148 -60v215l148 60v504q0 24 -6 32t-27 9l-129 14v162h682v-162l-170 -16q-22 -1 -27.5 -8.5t-5.5 -30.5v-375l399 164v-219l-399 -162v-455h365q17 0 23 4t9 19l33 204h225v-446h-1134z" />
<glyph unicode="&#x142;" horiz-adv-x="681" d="M25 582v221l153 65v430q0 35 -26 43l-113 39l22 166h426v-542l150 65v-221l-150 -66v-565q0 -25 5 -31.5t28 -9.5l101 -14v-162h-578v162l102 14q22 3 27.5 10.5t5.5 30.5v430z" />
<glyph unicode="&#x143;" horiz-adv-x="1693" d="M78 0v160l129 14q22 3 27.5 10.5t5.5 30.5v1053q0 24 -6 32t-27 9l-129 14v160h508l643 -1071v852q0 24 -6 32t-27 9l-129 14v164h569v-164l-137 -16q-23 -3 -28 -9t-5 -30v-1264h-336l-653 1069v-852q0 -25 5 -31.5t28 -9.5l137 -16v-160h-569zM604 1706l422 250 l104 -203l-454 -182z" />
<glyph unicode="&#x144;" horiz-adv-x="1277" d="M41 901l25 166h358l16 -106l9 -5q176 131 360 131q163 0 236 -87t73 -261v-522q0 -25 5 -31.5t28 -9.5l102 -14v-162h-444v662q0 35 -1.5 57t-7.5 48t-17.5 40.5t-32 24.5t-50.5 10q-53 0 -114.5 -24t-98.5 -52v-549q0 -25 5 -31.5t28 -9.5l98 -14v-162h-565v164l92 12 q22 3 27.5 10.5t5.5 30.5v602q0 35 -26 43zM389 1251l313 357l168 -160l-366 -299z" />
<glyph unicode="&#x145;" horiz-adv-x="1693" d="M78 0v160l129 14q22 3 27.5 10.5t5.5 30.5v1053q0 24 -6 32t-27 9l-129 14v160h508l643 -1071v852q0 24 -6 32t-27 9l-129 14v164h569v-164l-137 -16q-23 -3 -28 -9t-5 -30v-1264h-336l-653 1069v-852q0 -25 5 -31.5t28 -9.5l137 -16v-160h-569zM676 -313l43 200 q51 -1 86.5 -4t73 -12t59.5 -25t36.5 -43.5t14.5 -66.5q0 -59 -39 -139l-94 -197l-133 39l43 196q6 20 -10 25z" />
<glyph unicode="&#x146;" horiz-adv-x="1277" d="M41 901l25 166h358l16 -106l9 -5q176 131 360 131q163 0 236 -87t73 -261v-522q0 -25 5 -31.5t28 -9.5l102 -14v-162h-444v662q0 35 -1.5 57t-7.5 48t-17.5 40.5t-32 24.5t-50.5 10q-53 0 -114.5 -24t-98.5 -52v-549q0 -25 5 -31.5t28 -9.5l98 -14v-162h-565v164l92 12 q22 3 27.5 10.5t5.5 30.5v602q0 35 -26 43zM481 -313l43 200q65 -1 107 -6t83 -20t61 -46t20 -79q0 -59 -39 -139l-94 -197l-134 39l43 196q7 20 -10 25z" />
<glyph unicode="&#x147;" horiz-adv-x="1693" d="M78 0v160l129 14q22 3 27.5 10.5t5.5 30.5v1053q0 24 -6 32t-27 9l-129 14v160h508l643 -1071v852q0 24 -6 32t-27 9l-129 14v164h569v-164l-137 -16q-23 -3 -28 -9t-5 -30v-1264h-336l-653 1069v-852q0 -25 5 -31.5t28 -9.5l137 -16v-160h-569zM475 1823l111 116 l243 -165l242 165l113 -116l-248 -228h-213z" />
<glyph unicode="&#x148;" horiz-adv-x="1277" d="M41 901l25 166h358l16 -106l9 -5q176 131 360 131q163 0 236 -87t73 -261v-522q0 -25 5 -31.5t28 -9.5l102 -14v-162h-444v662q0 35 -1.5 57t-7.5 48t-17.5 40.5t-32 24.5t-50.5 10q-53 0 -114.5 -24t-98.5 -52v-549q0 -25 5 -31.5t28 -9.5l98 -14v-162h-565v164l92 12 q22 3 27.5 10.5t5.5 30.5v602q0 35 -26 43zM260 1454l123 109l233 -191l238 191l121 -107l-252 -264h-213z" />
<glyph unicode="&#x149;" horiz-adv-x="1382" d="M-61 1243l36 170q53 0 90.5 -4.5t73 -17.5t54 -39.5t18.5 -67.5q0 -45 -33 -113l-84 -165l-119 32l41 162q3 16 -12 23zM145 901l25 166h358l17 -106l8 -5q176 131 360 131q163 0 236.5 -87t73.5 -261v-522q0 -25 4.5 -31.5t27.5 -9.5l103 -14v-162h-445v662 q0 35 -1.5 57t-7.5 48t-17 40.5t-31.5 24.5t-50.5 10q-53 0 -114.5 -24t-98.5 -52v-549q0 -25 5 -31.5t28 -9.5l98 -14v-162h-565v164l92 12q22 3 27.5 10.5t5.5 30.5v602q0 35 -27 43z" />
<glyph unicode="&#x14a;" horiz-adv-x="1691" d="M78 0v160l129 14q22 3 27.5 10.5t5.5 30.5v1053q0 24 -6 32t-27 9l-129 14v160h508l643 -1047v828q0 24 -6 32t-27 9l-129 14v164h567v-164l-137 -16q-23 -3 -28 -9t-5 -30v-1373q0 -180 -97.5 -264t-285.5 -84q-121 0 -226.5 39.5t-149.5 77.5l88 170q36 -23 98 -44.5 t113 -21.5q76 0 113.5 39.5t37.5 139.5v57l-678 1069v-852q0 -25 5 -31.5t28 -9.5l137 -16v-160h-569z" />
<glyph unicode="&#x14b;" horiz-adv-x="1277" d="M41 901l25 166h358l16 -106l9 -5q176 131 360 131q163 0 236 -87t73 -261v-848q0 -180 -90.5 -264t-265.5 -84q-112 0 -206 34.5t-136 70.5l88 170q89 -54 178 -54q66 0 94.5 38.5t28.5 140.5v719q0 35 -1.5 57t-7.5 48t-17.5 40.5t-32 24.5t-50.5 10q-53 0 -114.5 -24 t-98.5 -52v-549q0 -25 5 -31.5t28 -9.5l98 -14v-162h-565v164l92 12q22 3 27.5 10.5t5.5 30.5v602q0 35 -26 43z" />
<glyph unicode="&#x14c;" horiz-adv-x="1554" d="M63 737q0 166 47 305.5t137 244t231 163.5t319 59q142 0 258 -38t196 -105.5t135 -161.5t80 -204t25 -236q0 -244 -78 -418.5t-242 -272.5t-403 -98q-146 0 -263.5 37t-199.5 103.5t-136.5 162t-80 210t-25.5 249.5zM391 743q0 -267 102 -391.5t287 -124.5q385 0 385 518 q0 258 -96.5 382t-275.5 124q-185 0 -293.5 -127t-108.5 -381zM469 1616v205h649v-205h-649z" />
<glyph unicode="&#x14d;" horiz-adv-x="1189" d="M55 526q0 263 139.5 412t413.5 149q139 0 242 -39.5t164.5 -112.5t91 -169t29.5 -217q0 -269 -139 -421.5t-414 -152.5q-137 0 -240 40.5t-165 115t-92 173t-30 222.5zM285 1227v205h649v-205h-649zM379 537q0 -347 217 -347q105 0 160 82t55 267q0 176 -51.5 251.5 t-155.5 75.5q-108 0 -166.5 -76.5t-58.5 -252.5z" />
<glyph unicode="&#x14e;" horiz-adv-x="1554" d="M63 737q0 166 47 305.5t137 244t231 163.5t319 59q142 0 258 -38t196 -105.5t135 -161.5t80 -204t25 -236q0 -244 -78 -418.5t-242 -272.5t-403 -98q-146 0 -263.5 37t-199.5 103.5t-136.5 162t-80 210t-25.5 249.5zM391 743q0 -267 102 -391.5t287 -124.5q385 0 385 518 q0 258 -96.5 382t-275.5 124q-185 0 -293.5 -127t-108.5 -381zM449 1878l157 57q50 -141 187 -141q66 0 111.5 31.5t76.5 109.5l154 -57q-36 -135 -118.5 -201.5t-223.5 -66.5t-225.5 66.5t-118.5 201.5z" />
<glyph unicode="&#x14f;" horiz-adv-x="1189" d="M55 526q0 263 139.5 412t413.5 149q139 0 242 -39.5t164.5 -112.5t91 -169t29.5 -217q0 -269 -139 -421.5t-414 -152.5q-137 0 -240 40.5t-165 115t-92 173t-30 222.5zM256 1450l156 59q53 -153 196 -153q71 0 118 36t79 117l156 -59q-37 -137 -121.5 -208t-231.5 -71 q-148 0 -232.5 71t-119.5 208zM379 537q0 -347 217 -347q105 0 160 82t55 267q0 176 -51.5 251.5t-155.5 75.5q-108 0 -166.5 -76.5t-58.5 -252.5z" />
<glyph unicode="&#x150;" horiz-adv-x="1554" d="M63 737q0 166 47 305.5t137 244t231 163.5t319 59q142 0 258 -38t196 -105.5t135 -161.5t80 -204t25 -236q0 -244 -78 -418.5t-242 -272.5t-403 -98q-146 0 -263.5 37t-199.5 103.5t-136.5 162t-80 210t-25.5 249.5zM391 743q0 -267 102 -391.5t287 -124.5q385 0 385 518 q0 258 -96.5 382t-275.5 124q-185 0 -293.5 -127t-108.5 -381zM453 1686l315 348l152 -156l-361 -301zM844 1681l340 322l137 -164l-391 -262z" />
<glyph unicode="&#x151;" horiz-adv-x="1189" d="M55 526q0 263 139.5 412t413.5 149q139 0 242 -39.5t164.5 -112.5t91 -169t29.5 -217q0 -269 -139 -421.5t-414 -152.5q-137 0 -240 40.5t-165 115t-92 173t-30 222.5zM256 1247l289 375l174 -152l-342 -323zM379 537q0 -347 217 -347q105 0 160 82t55 267 q0 176 -51.5 251.5t-155.5 75.5q-108 0 -166.5 -76.5t-58.5 -252.5zM653 1247l289 375l172 -152l-342 -323z" />
<glyph unicode="&#x152;" horiz-adv-x="2041" d="M63 737q0 168 39.5 306t118.5 243.5t210 164t304 58.5q110 0 209 -26h981v-414l-225 10l-29 156q-3 15 -10.5 21t-24.5 6h-399q116 -151 129 -404h434v-227h-436q-19 -266 -139 -412h456q18 0 24 4t9 19l33 180h223v-422h-1052q-98 -25 -211 -25q-644 0 -644 762z M401 743q0 -253 78 -374t238 -121t238.5 119.5t78.5 377.5q0 241 -75.5 366.5t-225.5 125.5q-159 0 -245.5 -128t-86.5 -366z" />
<glyph unicode="&#x153;" horiz-adv-x="1816" d="M55 539q0 252 135.5 400t389.5 148q268 0 387 -165q121 165 362 165q92 0 166.5 -28t132.5 -86t89.5 -156.5t31.5 -230.5q0 -58 -6 -119h-625q6 -130 63 -192t177 -62q122 0 307 68l76 -201q-222 -105 -400 -105q-264 0 -387 170q-135 -170 -393 -170q-132 0 -230.5 41 t-158 117t-88.5 177.5t-29 228.5zM385 537q0 -340 211 -340t211 342q0 167 -50.5 244t-152.5 77q-219 0 -219 -323zM1120 645h326q0 125 -42 173t-114 48q-73 0 -118 -49.5t-52 -171.5z" />
<glyph unicode="&#x154;" horiz-adv-x="1406" d="M78 0v164l129 14q21 1 27 9t6 32v1047q0 23 -5.5 30.5t-27.5 10.5l-129 14v162h698q107 0 191 -22.5t137 -60t87 -91.5t48 -111.5t14 -124.5q0 -150 -70 -243t-200 -150q42 -21 67 -57.5t52 -106.5l112 -293q11 -22 23.5 -29t38.5 -10l127 -20v-164h-447l-184 514 q-19 53 -44 72.5t-77 19.5h-96v-385q0 -25 5 -31.5t28 -9.5l143 -16v-164h-653zM446 1706l422 250l105 -203l-455 -182zM555 819h94q61 0 106.5 9t87 33t63.5 73t22 121q0 115 -64.5 160t-206.5 45h-102v-441z" />
<glyph unicode="&#x155;" horiz-adv-x="968" d="M41 901l22 166h361l25 -164h12q120 184 289 184q111 0 178 -18v-373l-246 9l-20 108q-5 23 -27 23q-65 0 -148 -72v-543q0 -26 5 -33t28 -8l203 -16v-164h-670v166l92 12q22 3 27.5 10.5t5.5 30.5v600q0 35 -26 43zM246 1251l313 357l168 -160l-367 -299z" />
<glyph unicode="&#x156;" horiz-adv-x="1406" d="M78 0v164l129 14q21 1 27 9t6 32v1047q0 23 -5.5 30.5t-27.5 10.5l-129 14v162h698q107 0 191 -22.5t137 -60t87 -91.5t48 -111.5t14 -124.5q0 -150 -70 -243t-200 -150q42 -21 67 -57.5t52 -106.5l112 -293q11 -22 23.5 -29t38.5 -10l127 -20v-164h-447l-184 514 q-19 53 -44 72.5t-77 19.5h-96v-385q0 -25 5 -31.5t28 -9.5l143 -16v-164h-653zM555 819h94q61 0 106.5 9t87 33t63.5 73t22 121q0 115 -64.5 160t-206.5 45h-102v-441zM571 -313l43 200q65 -1 107 -6t83 -20t61 -46t20 -79q0 -59 -39 -139l-94 -197l-134 39l44 196 q6 19 -11 25z" />
<glyph unicode="&#x157;" horiz-adv-x="968" d="M41 901l22 166h361l25 -164h12q120 184 289 184q111 0 178 -18v-373l-246 9l-20 108q-5 23 -27 23q-65 0 -148 -72v-543q0 -26 5 -33t28 -8l203 -16v-164h-670v166l92 12q22 3 27.5 10.5t5.5 30.5v600q0 35 -26 43zM328 -313l43 200q51 -1 86.5 -4t73 -12t59.5 -25 t36.5 -43.5t14.5 -66.5q0 -59 -39 -139l-94 -197l-133 39l43 196q6 20 -10 25z" />
<glyph unicode="&#x158;" horiz-adv-x="1406" d="M78 0v164l129 14q21 1 27 9t6 32v1047q0 23 -5.5 30.5t-27.5 10.5l-129 14v162h698q107 0 191 -22.5t137 -60t87 -91.5t48 -111.5t14 -124.5q0 -150 -70 -243t-200 -150q42 -21 67 -57.5t52 -106.5l112 -293q11 -22 23.5 -29t38.5 -10l127 -20v-164h-447l-184 514 q-19 53 -44 72.5t-77 19.5h-96v-385q0 -25 5 -31.5t28 -9.5l143 -16v-164h-653zM317 1823l111 116l244 -165l241 165l113 -116l-248 -228h-213zM555 819h94q61 0 106.5 9t87 33t63.5 73t22 121q0 115 -64.5 160t-206.5 45h-102v-441z" />
<glyph unicode="&#x159;" horiz-adv-x="968" d="M41 901l22 166h361l25 -164h12q120 184 289 184q111 0 178 -18v-373l-246 9l-20 108q-5 23 -27 23q-65 0 -148 -72v-543q0 -26 5 -33t28 -8l203 -16v-164h-670v166l92 12q22 3 27.5 10.5t5.5 30.5v600q0 35 -26 43zM117 1454l123 109l233 -191l238 191l120 -107 l-251 -264h-213z" />
<glyph unicode="&#x15a;" horiz-adv-x="1214" d="M92 59v400h230l40 -195q3 -19 9 -26t26 -11q92 -22 172 -22q125 0 191.5 48.5t66.5 141.5q0 38 -14 68.5t-35 51t-57.5 38.5t-67.5 28.5t-80 24.5q-158 44 -217 71q-165 75 -213 220q-22 67 -22 152q0 115 41.5 204t116.5 144.5t173.5 83.5t217.5 28q227 0 420 -82v-399 l-232 21l-24 165q-5 30 -25 39q-76 23 -150 23q-112 0 -170.5 -47t-58.5 -127q0 -38 17 -69t36 -49.5t66 -39t71.5 -29t88.5 -27.5q5 -2 8.5 -3t7.5 -2q52 -16 85 -27t81 -32t79 -42.5t65.5 -55.5t54.5 -73t33.5 -93t13.5 -118q0 -122 -45.5 -214t-126 -146t-182 -80.5 t-222.5 -26.5q-129 0 -266.5 26.5t-202.5 57.5zM414 1706l422 250l104 -203l-455 -182z" />
<glyph unicode="&#x15b;" horiz-adv-x="997" d="M74 49v297l219 -16l20 -117q3 -26 25 -31q62 -20 158 -20q170 0 170 106q0 56 -47.5 82.5t-139.5 42.5q-153 28 -221 57q-175 80 -176 279q0 92 37 162.5t101.5 112t144 62.5t170.5 21q110 0 217 -19t159 -40v-297l-219 14l-20 107q-3 24 -21 29q-54 16 -131 16 q-76 0 -118 -27t-42 -77q0 -22 11.5 -40t28 -29.5t47.5 -22t55 -17t65 -15.5q7 -2 10.5 -2.5t9.5 -2t11 -2.5q59 -13 99.5 -25.5t90.5 -38.5t80.5 -59t52 -87.5t21.5 -123.5q0 -91 -35.5 -160t-99 -110.5t-146 -62t-182.5 -20.5q-127 0 -249 25.5t-156 48.5zM289 1251 l313 357l168 -160l-367 -299z" />
<glyph unicode="&#x15c;" horiz-adv-x="1214" d="M92 59v400h230l40 -195q3 -19 9 -26t26 -11q92 -22 172 -22q125 0 191.5 48.5t66.5 141.5q0 38 -14 68.5t-35 51t-57.5 38.5t-67.5 28.5t-80 24.5q-158 44 -217 71q-165 75 -213 220q-22 67 -22 152q0 115 41.5 204t116.5 144.5t173.5 83.5t217.5 28q227 0 420 -82v-399 l-232 21l-24 165q-5 30 -25 39q-76 23 -150 23q-112 0 -170.5 -47t-58.5 -127q0 -38 17 -69t36 -49.5t66 -39t71.5 -29t88.5 -27.5q5 -2 8.5 -3t7.5 -2q52 -16 85 -27t81 -32t79 -42.5t65.5 -55.5t54.5 -73t33.5 -93t13.5 -118q0 -122 -45.5 -214t-126 -146t-182 -80.5 t-222.5 -26.5q-129 0 -266.5 26.5t-202.5 57.5zM285 1686l247 229h213l248 -229l-112 -115l-242 166l-242 -166z" />
<glyph unicode="&#x15d;" horiz-adv-x="997" d="M74 49v297l219 -16l20 -117q3 -26 25 -31q62 -20 158 -20q170 0 170 106q0 56 -47.5 82.5t-139.5 42.5q-153 28 -221 57q-175 80 -176 279q0 92 37 162.5t101.5 112t144 62.5t170.5 21q110 0 217 -19t159 -40v-297l-219 14l-20 107q-3 24 -21 29q-54 16 -131 16 q-76 0 -118 -27t-42 -77q0 -22 11.5 -40t28 -29.5t47.5 -22t55 -17t65 -15.5q7 -2 10.5 -2.5t9.5 -2t11 -2.5q59 -13 99.5 -25.5t90.5 -38.5t80.5 -59t52 -87.5t21.5 -123.5q0 -91 -35.5 -160t-99 -110.5t-146 -62t-182.5 -20.5q-127 0 -249 25.5t-156 48.5zM158 1257 l252 265h213l251 -265l-122 -106l-236 190l-235 -190z" />
<glyph unicode="&#x15e;" horiz-adv-x="1214" d="M92 59v400h230l40 -195q3 -19 9 -26t26 -11q92 -22 172 -22q125 0 191.5 48.5t66.5 141.5q0 38 -14 68.5t-35 51t-57.5 38.5t-67.5 28.5t-80 24.5q-158 44 -217 71q-165 75 -213 220q-22 67 -22 152q0 115 41.5 204t116.5 144.5t173.5 83.5t217.5 28q227 0 420 -82v-399 l-232 21l-24 165q-5 30 -25 39q-76 23 -150 23q-112 0 -170.5 -47t-58.5 -127q0 -38 17 -69t36 -49.5t66 -39t71.5 -29t88.5 -27.5q5 -2 8.5 -3t7.5 -2q52 -16 85 -27t81 -32t79 -42.5t65.5 -55.5t54.5 -73t33.5 -93t13.5 -118q0 -113 -38.5 -199.5t-107.5 -140.5 t-157.5 -84t-196.5 -38l-8 -72q67 -12 114.5 -57.5t47.5 -126.5q0 -107 -77 -177.5t-233 -70.5q-60 0 -84 6l13 139q32 -4 51 -4q141 0 141 102q0 83 -135 86l22 172q-117 7 -230 31.5t-167 50.5z" />
<glyph unicode="&#x15f;" horiz-adv-x="997" d="M74 49v297l219 -16l20 -117q3 -26 25 -31q62 -20 158 -20q170 0 170 106q0 56 -47.5 82.5t-139.5 42.5q-153 28 -221 57q-175 80 -176 279q0 92 37 162.5t101.5 112t144 62.5t170.5 21q110 0 217 -19t159 -40v-297l-219 14l-20 107q-3 24 -21 29q-54 16 -131 16 q-76 0 -118 -27t-42 -77q0 -22 11.5 -40t28 -29.5t47.5 -22t55 -17t65 -15.5q7 -2 10.5 -2.5t9.5 -2t11 -2.5q59 -13 99.5 -25.5t90.5 -38.5t80.5 -59t52 -87.5t21.5 -123.5q0 -169 -113 -255t-303 -96l-8 -69q67 -12 114.5 -57.5t47.5 -126.5q0 -107 -76.5 -177.5 t-232.5 -70.5q-60 0 -84 6l12 139q32 -4 51 -4q74 0 108 28t34 74q0 83 -136 86l23 175q-102 8 -191 30t-114 39z" />
<glyph unicode="&#x160;" horiz-adv-x="1214" d="M92 59v400h230l40 -195q3 -19 9 -26t26 -11q92 -22 172 -22q125 0 191.5 48.5t66.5 141.5q0 38 -14 68.5t-35 51t-57.5 38.5t-67.5 28.5t-80 24.5q-158 44 -217 71q-165 75 -213 220q-22 67 -22 152q0 115 41.5 204t116.5 144.5t173.5 83.5t217.5 28q227 0 420 -82v-399 l-232 21l-24 165q-5 30 -25 39q-76 23 -150 23q-112 0 -170.5 -47t-58.5 -127q0 -38 17 -69t36 -49.5t66 -39t71.5 -29t88.5 -27.5q5 -2 8.5 -3t7.5 -2q52 -16 85 -27t81 -32t79 -42.5t65.5 -55.5t54.5 -73t33.5 -93t13.5 -118q0 -122 -45.5 -214t-126 -146t-182 -80.5 t-222.5 -26.5q-129 0 -266.5 26.5t-202.5 57.5zM285 1823l110 116l244 -165l242 165l112 -116l-248 -228h-213z" />
<glyph unicode="&#x161;" horiz-adv-x="997" d="M74 49v297l219 -16l20 -117q3 -26 25 -31q62 -20 158 -20q170 0 170 106q0 56 -47.5 82.5t-139.5 42.5q-153 28 -221 57q-175 80 -176 279q0 92 37 162.5t101.5 112t144 62.5t170.5 21q110 0 217 -19t159 -40v-297l-219 14l-20 107q-3 24 -21 29q-54 16 -131 16 q-76 0 -118 -27t-42 -77q0 -22 11.5 -40t28 -29.5t47.5 -22t55 -17t65 -15.5q7 -2 10.5 -2.5t9.5 -2t11 -2.5q59 -13 99.5 -25.5t90.5 -38.5t80.5 -59t52 -87.5t21.5 -123.5q0 -91 -35.5 -160t-99 -110.5t-146 -62t-182.5 -20.5q-127 0 -249 25.5t-156 48.5zM160 1454 l123 109l233 -191l238 191l120 -107l-251 -264h-213z" />
<glyph unicode="&#x162;" horiz-adv-x="1421" d="M51 1059v424h1319v-424h-223l-33 178q-3 15 -9 19t-24 4h-211v-1043q0 -23 5.5 -30.5t27.5 -8.5l225 -16v-162h-360l-12 -92q67 -12 114.5 -57.5t47.5 -126.5q0 -107 -77 -177.5t-233 -70.5q-60 0 -84 6l13 139q32 -4 51 -4q141 0 141 102q0 83 -135 86l24 195h-309v162 l211 14q21 1 27 9t6 32v1043h-211q-18 0 -24 -4t-9 -19l-33 -178h-225z" />
<glyph unicode="&#x163;" horiz-adv-x="892" d="M16 862v182q134 15 196 90.5t79 243.5h194v-291q0 -12 3 -16t14 -4h289v-205h-306v-489q0 -93 29.5 -130.5t110.5 -37.5q76 0 166 33l55 -181q-143 -71 -295 -80l-8 -69q67 -12 114.5 -57.5t47.5 -126.5q0 -107 -77 -177.5t-233 -70.5q-60 0 -84 6l13 139q32 -4 51 -4 q141 0 141 102q0 83 -135 86l22 179q-121 20 -174 96.5t-53 224.5v537q0 8 -0.5 11t-4 6t-11.5 3h-144z" />
<glyph unicode="&#x164;" horiz-adv-x="1421" d="M51 1059v424h1319v-424h-223l-33 178q-3 15 -9 19t-24 4h-211v-1043q0 -23 5.5 -30.5t27.5 -8.5l225 -16v-162h-819v162l211 14q21 1 27 9t6 32v1043h-211q-18 0 -24 -4t-9 -19l-33 -178h-225zM358 1823l111 116l244 -165l241 165l113 -116l-248 -228h-213z" />
<glyph unicode="&#x165;" horiz-adv-x="892" d="M16 862v182q134 15 196 90.5t79 243.5h194v-291q0 -12 3 -16t14 -4h289v-205h-306v-489q0 -93 29.5 -130.5t110.5 -37.5q76 0 166 33l55 -181q-168 -82 -334 -82q-181 0 -258.5 77.5t-77.5 252.5v537q0 8 -0.5 11t-4 6t-11.5 3h-144zM573 1178q41 164 41 241t-26 127 l215 82q39 -56 39 -135q0 -38 -13 -92q-36 -125 -108 -266z" />
<glyph unicode="&#x166;" horiz-adv-x="1421" d="M51 1059v424h1319v-424h-223l-33 178q-3 15 -9 19t-24 4h-211v-451h215v-205h-215v-387q0 -23 5.5 -30.5t27.5 -8.5l225 -16v-162h-819v162l211 14q21 1 27 9t6 32v387h-219v205h219v451h-211q-18 0 -24 -4t-9 -19l-33 -178h-225z" />
<glyph unicode="&#x167;" horiz-adv-x="892" d="M16 862v182q134 15 196 90.5t79 243.5h194v-291q0 -12 3 -16t14 -4h289v-205h-306v-203h312v-204h-312v-82q0 -93 29.5 -130.5t110.5 -37.5q76 0 166 33l55 -181q-168 -82 -334 -82q-181 0 -258.5 77.5t-77.5 252.5v150h-153v204h153v183q0 8 -0.5 11t-4 6t-11.5 3h-144z " />
<glyph unicode="&#x168;" horiz-adv-x="1607" d="M61 1321v162h648v-162l-138 -16q-23 -3 -27.5 -9t-4.5 -30v-670q0 -94 12 -157.5t42 -112t85 -71t137 -22.5q164 0 230.5 80.5t66.5 274.5v678q0 24 -6 32t-27 9l-129 14v162h606v-162l-137 -16q-23 -3 -28 -9t-5 -30v-736q0 -283 -152 -419t-431 -136q-304 0 -443 137 t-139 427v727q0 24 -6 32t-27 9zM465 1669l61 105q60 102 136 102q43 0 129 -25q179 -46 202 -51q22 -6 33 8l59 64l121 -74l-45 -82q-34 -63 -63.5 -90t-71.5 -27q-15 0 -32 2.5t-30 5.5t-40.5 10t-44.5 11q-26 6 -77 19.5t-83 21.5t-41 8q-14 0 -33 -16l-67 -64z" />
<glyph unicode="&#x169;" horiz-adv-x="1275" d="M41 899l20 168h420v-678q0 -97 22.5 -134.5t86.5 -37.5q108 0 211 94v527q0 25 -5 30.5t-28 10.5l-88 20l22 168h408v-850q0 -22 5 -30t24 -9l102 -14v-164h-381l-16 111l-10 2q-40 -30 -70 -49t-77 -42.5t-101.5 -35t-116.5 -11.5q-158 0 -227.5 89t-69.5 272v500 q0 25 -5 32t-28 11zM244 1264l61 104q60 102 135 102q46 0 129 -24q174 -45 203 -51q22 -6 33 8l59 63l121 -73l-45 -82q-34 -63 -63.5 -90t-71.5 -27q-15 0 -32.5 2.5t-30 5.5t-41 10t-44.5 11q-26 6 -76.5 19.5t-82.5 21.5t-41 8q-13 0 -33 -17l-68 -63z" />
<glyph unicode="&#x16a;" horiz-adv-x="1607" d="M61 1321v162h648v-162l-138 -16q-23 -3 -27.5 -9t-4.5 -30v-670q0 -94 12 -157.5t42 -112t85 -71t137 -22.5q164 0 230.5 80.5t66.5 274.5v678q0 24 -6 32t-27 9l-129 14v162h606v-162l-137 -16q-23 -3 -28 -9t-5 -30v-736q0 -283 -152 -419t-431 -136q-304 0 -443 137 t-139 427v727q0 24 -6 32t-27 9zM510 1608v204h649v-204h-649z" />
<glyph unicode="&#x16b;" horiz-adv-x="1275" d="M41 899l20 168h420v-678q0 -97 22.5 -134.5t86.5 -37.5q108 0 211 94v527q0 25 -5 30.5t-28 10.5l-88 20l22 168h408v-850q0 -22 5 -30t24 -9l102 -14v-164h-381l-16 111l-10 2q-40 -30 -70 -49t-77 -42.5t-101.5 -35t-116.5 -11.5q-158 0 -227.5 89t-69.5 272v500 q0 25 -5 32t-28 11zM289 1227v205h649v-205h-649z" />
<glyph unicode="&#x16c;" horiz-adv-x="1607" d="M61 1321v162h648v-162l-138 -16q-23 -3 -27.5 -9t-4.5 -30v-670q0 -94 12 -157.5t42 -112t85 -71t137 -22.5q164 0 230.5 80.5t66.5 274.5v678q0 24 -6 32t-27 9l-129 14v162h606v-162l-137 -16q-23 -3 -28 -9t-5 -30v-736q0 -283 -152 -419t-431 -136q-304 0 -443 137 t-139 427v727q0 24 -6 32t-27 9zM489 1870l158 57q50 -141 187 -141q66 0 111.5 31.5t76.5 109.5l154 -57q-36 -135 -118.5 -201.5t-223.5 -66.5t-226 66.5t-119 201.5z" />
<glyph unicode="&#x16d;" horiz-adv-x="1275" d="M41 899l20 168h420v-678q0 -97 22.5 -134.5t86.5 -37.5q108 0 211 94v527q0 25 -5 30.5t-28 10.5l-88 20l22 168h408v-850q0 -22 5 -30t24 -9l102 -14v-164h-381l-16 111l-10 2q-40 -30 -70 -49t-77 -42.5t-101.5 -35t-116.5 -11.5q-158 0 -227.5 89t-69.5 272v500 q0 25 -5 32t-28 11zM260 1450l156 59q53 -153 196 -153q71 0 118 36t79 117l156 -59q-37 -137 -121.5 -208t-231.5 -71q-148 0 -232.5 71t-119.5 208z" />
<glyph unicode="&#x16e;" horiz-adv-x="1607" d="M61 1321v162h648v-162l-138 -16q-23 -3 -27.5 -9t-4.5 -30v-670q0 -94 12 -157.5t42 -112t85 -71t137 -22.5q164 0 230.5 80.5t66.5 274.5v678q0 24 -6 32t-27 9l-129 14v162h606v-162l-137 -16q-23 -3 -28 -9t-5 -30v-736q0 -283 -152 -419t-431 -136q-304 0 -443 137 t-139 427v727q0 24 -6 32t-27 9zM623 1747q0 94 64.5 151.5t156.5 57.5q90 0 152.5 -55.5t62.5 -145.5q0 -93 -61 -150t-154 -57q-96 0 -158.5 56t-62.5 143zM760 1751q0 -82 84 -82q36 0 57 21t21 65q0 40 -21.5 61t-56.5 21q-84 0 -84 -86z" />
<glyph unicode="&#x16f;" horiz-adv-x="1275" d="M41 899l20 168h420v-678q0 -97 22.5 -134.5t86.5 -37.5q108 0 211 94v527q0 25 -5 30.5t-28 10.5l-88 20l22 168h408v-850q0 -22 5 -30t24 -9l102 -14v-164h-381l-16 111l-10 2q-40 -30 -70 -49t-77 -42.5t-101.5 -35t-116.5 -11.5q-158 0 -227.5 89t-69.5 272v500 q0 25 -5 32t-28 11zM401 1368q0 94 64.5 151.5t157.5 57.5q90 0 152.5 -55.5t62.5 -145.5q0 -93 -61 -150t-154 -57q-96 0 -159 56t-63 143zM539 1372q0 -82 84 -82q77 0 77 86q0 40 -21 61t-56 21q-84 0 -84 -86z" />
<glyph unicode="&#x170;" horiz-adv-x="1607" d="M61 1321v162h648v-162l-138 -16q-23 -3 -27.5 -9t-4.5 -30v-670q0 -94 12 -157.5t42 -112t85 -71t137 -22.5q164 0 230.5 80.5t66.5 274.5v678q0 24 -6 32t-27 9l-129 14v162h606v-162l-137 -16q-23 -3 -28 -9t-5 -30v-736q0 -283 -152 -419t-431 -136q-304 0 -443 137 t-139 427v727q0 24 -6 32t-27 9zM494 1677l315 348l152 -155l-361 -301zM885 1673l340 322l137 -164l-391 -262z" />
<glyph unicode="&#x171;" horiz-adv-x="1275" d="M41 899l20 168h420v-678q0 -97 22.5 -134.5t86.5 -37.5q108 0 211 94v527q0 25 -5 30.5t-28 10.5l-88 20l22 168h408v-850q0 -22 5 -30t24 -9l102 -14v-164h-381l-16 111l-10 2q-40 -30 -70 -49t-77 -42.5t-101.5 -35t-116.5 -11.5q-158 0 -227.5 89t-69.5 272v500 q0 25 -5 32t-28 11zM260 1247l289 375l174 -152l-342 -323zM657 1247l289 375l172 -152l-342 -323z" />
<glyph unicode="&#x172;" horiz-adv-x="1607" d="M61 1321v162h648v-162l-138 -16q-23 -3 -27.5 -9t-4.5 -30v-670q0 -94 12 -157.5t42 -112t85 -71t137 -22.5q164 0 230.5 80.5t66.5 274.5v678q0 24 -6 32t-27 9l-129 14v162h606v-162l-137 -16q-23 -3 -28 -9t-5 -30v-736q0 -192 -64 -313.5t-196 -198.5 q-75 -44 -133.5 -116.5t-58.5 -134.5q0 -60 59 -60q39 0 107 21l57 -152q-118 -55 -242 -55q-109 0 -164 48.5t-55 133.5q0 136 162 274q-18 -2 -55 -2q-304 0 -443 137t-139 427v727q0 24 -6 32t-27 9z" />
<glyph unicode="&#x173;" horiz-adv-x="1275" d="M41 899l20 168h420v-678q0 -97 22.5 -134.5t86.5 -37.5q108 0 211 94v527q0 25 -5 30.5t-28 10.5l-88 20l22 168h408v-850q0 -22 5 -30t24 -9l102 -14v-164q-86 -34 -147.5 -101.5t-61.5 -131.5q0 -60 60 -60q38 0 106 21l57 -152q-118 -55 -241 -55q-109 0 -164 48.5 t-55 133.5q0 89 61.5 168t151.5 129h-148l-16 111l-10 2q-40 -30 -70 -49t-77 -42.5t-101.5 -35t-116.5 -11.5q-158 0 -227.5 89t-69.5 272v500q0 25 -5 32t-28 11z" />
<glyph unicode="&#x174;" horiz-adv-x="2136" d="M12 1323l21 160h626v-160l-172 -20l209 -1002h17l235 907h312l233 -913h16l211 1008l-172 20l21 160h553v-160l-97 -23q-22 -3 -31.5 -10t-15.5 -26l-290 -1264h-414l-201 750h-12l-189 -750h-401l-309 1264q-4 18 -13.5 24.5t-31.5 11.5zM758 1686l248 229h213l247 -229 l-112 -115l-242 166l-242 -166z" />
<glyph unicode="&#x175;" horiz-adv-x="1800" d="M6 901l33 166h518v-170l-115 -12l164 -576h15l182 731h309l176 -731h12l154 576l-117 12l27 170h430v-166l-74 -14q-22 -3 -32.5 -12t-16.5 -29l-252 -846h-323l-160 686h-12l-162 -686h-369l-258 848q-6 18 -14.5 24t-28.5 11zM590 1257l252 265h213l252 -265l-123 -106 l-236 190l-235 -190z" />
<glyph unicode="&#x176;" horiz-adv-x="1384" d="M6 1323l21 160h614v-160l-160 -18l248 -484h16l248 484l-157 18l20 160h522v-160l-86 -23q-39 -10 -51 -38l-371 -705v-340q0 -23 5.5 -30.5t27.5 -8.5l217 -16v-162h-803v162l205 14q21 1 27 9t6 32v336l-408 713q-14 23 -49 34zM369 1686l247 229h213l248 -229 l-112 -115l-242 166l-242 -166z" />
<glyph unicode="&#x177;" horiz-adv-x="1267" d="M6 901l33 166h543v-166l-129 -16l227 -541h14l217 541l-133 16l27 166h457v-166l-66 -12q-40 -6 -51 -35l-451 -1102l213 -22v-164h-682v166l160 18q19 1 30.5 11.5t20.5 33.5l88 195l-391 856q-6 18 -14.5 24t-28.5 11zM295 1257l252 265h213l252 -265l-123 -106 l-236 190l-235 -190z" />
<glyph unicode="&#x178;" horiz-adv-x="1384" d="M6 1323l21 160h614v-160l-160 -18l248 -484h16l248 484l-157 18l20 160h522v-160l-86 -23q-39 -10 -51 -38l-371 -705v-340q0 -23 5.5 -30.5t27.5 -8.5l217 -16v-162h-803v162l205 14q21 1 27 9t6 32v336l-408 713q-14 23 -49 34zM362 1743q0 64 40.5 102.5t105.5 38.5 q66 0 105.5 -38.5t39.5 -102.5q0 -66 -39.5 -105t-105.5 -39q-65 0 -105.5 39.5t-40.5 104.5zM788 1743q0 64 40.5 102.5t105.5 38.5q66 0 105.5 -38.5t39.5 -102.5q0 -66 -39.5 -105t-105.5 -39q-65 0 -105.5 39.5t-40.5 104.5z" />
<glyph unicode="&#x179;" horiz-adv-x="1376" d="M104 0v199l766 1063h-454q-18 0 -24 -4t-9 -19l-39 -192l-221 -7v443h1124v-207l-755 -1057h499q18 0 24 4t9 19l39 219h221v-461h-1180zM453 1706l421 250l105 -203l-455 -182z" />
<glyph unicode="&#x17a;" horiz-adv-x="1058" d="M70 721v346h899v-176l-539 -701h301q19 0 23 27l24 141l223 11v-369h-929v172l549 702h-287q-19 0 -23 -26l-24 -115zM289 1251l313 357l168 -160l-367 -299z" />
<glyph unicode="&#x17b;" horiz-adv-x="1376" d="M104 0v199l766 1063h-454q-18 0 -24 -4t-9 -19l-39 -192l-221 -7v443h1124v-207l-755 -1057h499q18 0 24 4t9 19l39 219h221v-461h-1180zM494 1784q0 87 48 133.5t136 46.5q90 0 138 -46.5t48 -133.5q0 -88 -48.5 -136.5t-137.5 -48.5q-88 0 -136 48.5t-48 136.5z" />
<glyph unicode="&#x17c;" horiz-adv-x="1058" d="M70 721v346h899v-176l-539 -701h301q19 0 23 27l24 141l223 11v-369h-929v172l549 702h-287q-19 0 -23 -26l-24 -115zM332 1421q0 87 48 134t136 47q89 0 137.5 -46.5t48.5 -134.5q0 -89 -48.5 -137.5t-137.5 -48.5q-88 0 -136 48.5t-48 137.5z" />
<glyph unicode="&#x17d;" horiz-adv-x="1376" d="M104 0v199l766 1063h-454q-18 0 -24 -4t-9 -19l-39 -192l-221 -7v443h1124v-207l-755 -1057h499q18 0 24 4t9 19l39 219h221v-461h-1180zM324 1823l110 116l244 -165l242 165l112 -116l-248 -228h-213z" />
<glyph unicode="&#x17e;" horiz-adv-x="1058" d="M70 721v346h899v-176l-539 -701h301q19 0 23 27l24 141l223 11v-369h-929v172l549 702h-287q-19 0 -23 -26l-24 -115zM160 1454l123 109l233 -191l238 191l120 -107l-251 -264h-213z" />
<glyph unicode="&#x17f;" horiz-adv-x="894" d="M55 0v164l115 12q21 3 27 11t6 32v961q0 203 110.5 297t327.5 94q62 0 111.5 -6.5t99 -26t82.5 -51.5t53.5 -85.5t20.5 -125.5l-287 -35q1 75 -20 102t-74 27q-71 0 -93 -35.5t-22 -117.5v-992q0 -25 7 -32t30 -9l250 -22v-162h-744z" />
<glyph unicode="&#x2c6;" d="M154 1257l252 265h212l252 -265l-122 -106l-236 190l-236 -190z" />
<glyph unicode="&#x2c7;" d="M154 1454l122 109l234 -191l238 191l120 -107l-252 -264h-213z" />
<glyph unicode="&#x2d8;" d="M160 1450l155 59q53 -153 197 -153q71 0 118 36t79 117l155 -59q-37 -138 -121 -208.5t-231 -70.5q-148 0 -232.5 71t-119.5 208z" />
<glyph unicode="&#x2d9;" d="M328 1421q0 87 48 134t136 47q89 0 137.5 -46.5t48.5 -134.5q0 -89 -48.5 -137.5t-137.5 -48.5q-88 0 -136 48.5t-48 137.5z" />
<glyph unicode="&#x2da;" d="M301 1368q0 94 64.5 151.5t156.5 57.5q90 0 152.5 -55.5t62.5 -145.5q0 -93 -61 -150t-154 -57q-96 0 -158.5 56t-62.5 143zM438 1372q0 -82 84 -82q36 0 57 21t21 65q0 40 -21.5 61t-56.5 21q-84 0 -84 -86z" />
<glyph unicode="&#x2db;" d="M281 -297q0 174 256 342l145 -39q-164 -142 -164 -239q0 -60 60 -60q38 0 106 21l57 -152q-118 -55 -241 -55q-109 0 -164 48.5t-55 133.5z" />
<glyph unicode="&#x2dc;" d="M141 1264l62 104q60 102 135 102q46 0 129 -24q174 -45 203 -51q21 -5 32 8l60 63l121 -73l-45 -82q-34 -63 -63.5 -90t-72.5 -27q-15 0 -32 2.5t-30 5.5t-40.5 10t-44.5 11q-26 6 -77 19.5t-83 21.5t-41 8q-12 0 -32 -17l-68 -63z" />
<glyph unicode="&#x2dd;" d="M113 1247l288 375l174 -152l-342 -323zM510 1247l289 375l172 -152l-342 -323z" />
<glyph unicode="&#x2000;" horiz-adv-x="1017" />
<glyph unicode="&#x2001;" horiz-adv-x="2034" />
<glyph unicode="&#x2002;" horiz-adv-x="1017" />
<glyph unicode="&#x2003;" horiz-adv-x="2034" />
<glyph unicode="&#x2004;" horiz-adv-x="678" />
<glyph unicode="&#x2005;" horiz-adv-x="508" />
<glyph unicode="&#x2006;" horiz-adv-x="339" />
<glyph unicode="&#x2007;" horiz-adv-x="339" />
<glyph unicode="&#x2008;" horiz-adv-x="254" />
<glyph unicode="&#x2009;" horiz-adv-x="406" />
<glyph unicode="&#x200a;" horiz-adv-x="113" />
<glyph unicode="&#x2010;" horiz-adv-x="636" d="M41 465v260h555v-260h-555z" />
<glyph unicode="&#x2011;" horiz-adv-x="636" d="M41 465v260h555v-260h-555z" />
<glyph unicode="&#x2012;" horiz-adv-x="636" d="M41 465v260h555v-260h-555z" />
<glyph unicode="&#x2013;" d="M0 465v219h1022v-219h-1022z" />
<glyph unicode="&#x2014;" horiz-adv-x="2048" d="M0 465v219h2048v-219h-2048z" />
<glyph unicode="&#x2018;" horiz-adv-x="460" d="M82 1249q0 55 39 131l98 207l129 -39l-47 -202q-3 -18 10 -23l78 -27l-41 -196q-49 1 -84 4t-71.5 12t-59 24.5t-37 43t-14.5 65.5z" />
<glyph unicode="&#x2019;" horiz-adv-x="460" d="M72 1391l41 196q50 -1 84 -3.5t71.5 -11.5t59.5 -24.5t36.5 -43t14.5 -66.5q0 -59 -37 -131l-98 -207l-131 39l47 202q6 20 -10 25z" />
<glyph unicode="&#x201a;" horiz-adv-x="473" d="M92 14l41 197q63 -1 105 -6.5t82.5 -20t60.5 -45.5t20 -78q0 -50 -39 -133l-98 -204l-129 38l45 199q5 22 -10 27z" />
<glyph unicode="&#x201c;" horiz-adv-x="829" d="M82 1249q0 55 39 131l98 207l129 -39l-47 -202q-3 -18 10 -23l78 -27l-41 -196q-49 1 -84 4t-71.5 12t-59 24.5t-37 43t-14.5 65.5zM451 1249q0 57 38 131l99 207l129 -39l-47 -202q-3 -18 10 -23l78 -27l-41 -196q-49 1 -84 4t-71.5 12t-59 24.5t-37 43t-14.5 65.5z" />
<glyph unicode="&#x201d;" horiz-adv-x="829" d="M72 1391l41 196q50 -1 84 -3.5t71.5 -11.5t59.5 -24.5t36.5 -43t14.5 -66.5q0 -59 -37 -131l-98 -207l-131 39l47 202q6 20 -10 25zM440 1391l41 196q50 -1 84 -3.5t71.5 -11.5t60 -24.5t37 -43t14.5 -66.5q0 -59 -37 -131l-99 -207l-131 39l47 202q6 20 -10 25z" />
<glyph unicode="&#x201e;" horiz-adv-x="841" d="M92 14l41 197q63 -1 105 -6.5t82.5 -20t60.5 -45.5t20 -78q0 -50 -39 -133l-98 -204l-129 38l45 199q5 22 -10 27zM461 14l41 197q63 -1 105 -6.5t82.5 -20t60.5 -45.5t20 -78q0 -50 -39 -133l-98 -204l-129 38l45 199q5 22 -10 27z" />
<glyph unicode="&#x2026;" horiz-adv-x="1443" d="M82 135q0 160 176 160q86 0 130 -41t44 -119q0 -160 -174 -160q-176 0 -176 160zM549 135q0 160 176 160q86 0 130 -41t44 -119q0 -160 -174 -160q-176 0 -176 160zM1012 135q0 160 176 160q86 0 130 -41t44 -119q0 -160 -174 -160q-176 0 -176 160z" />
<glyph unicode="&#x202f;" horiz-adv-x="406" />
<glyph unicode="&#x2039;" horiz-adv-x="575" d="M72 526l182 310h250l-164 -285q-12 -19 -2 -39l156 -301h-246z" />
<glyph unicode="&#x203a;" horiz-adv-x="575" d="M72 836h250l182 -312l-176 -313h-248l158 295q6 13 5.5 20t-7.5 19z" />
<glyph unicode="&#x205f;" horiz-adv-x="508" />
<glyph unicode="&#x20ac;" horiz-adv-x="1144" d="M-12 543l41 239h114q15 144 65.5 253.5t126.5 175t168.5 98t198.5 32.5q111 0 219 -27.5t164 -62.5v-348l-213 10l-30 158q-3 28 -25 35q-35 14 -102 14q-99 0 -164.5 -79.5t-79.5 -258.5h307l-39 -239h-266q15 -178 75 -260t171 -82q58 0 98 14q20 8 23 31l32 164 l211 10v-357q-51 -33 -167.5 -60.5t-229.5 -27.5q-247 0 -383.5 144t-159.5 424h-155z" />
<glyph unicode="&#x2122;" horiz-adv-x="1734" d="M49 1245v238h680v-238h-104l-11 105h-137v-523l117 -10v-104h-406v104l111 10v523h-133l-12 -105h-105zM782 713v102l74 10v549l-74 8v101h267l192 -453l186 453h259v-101l-78 -8v-549l82 -10v-102h-336v102l102 10v377l-141 -323h-162l-143 325v-379l108 -10v-102h-336z " />
<glyph unicode="&#x25fc;" horiz-adv-x="1064" d="M0 0v1065h1065v-1065h-1065z" />
</font>
</defs>
</svg>
